<svg width="754" height="754" viewBox="0 0 754 754" fill="none" xmlns="http://www.w3.org/2000/svg">
<g opacity="0.4">
<path d="M376.95 394.45C386.615 394.45 394.45 386.615 394.45 376.95C394.45 367.285 386.615 359.45 376.95 359.45C367.285 359.45 359.45 367.285 359.45 376.95C359.45 386.615 367.285 394.45 376.95 394.45Z" fill="#F8B9B6"/>
<path d="M376.95 484.45C386.615 484.45 394.45 476.615 394.45 466.95C394.45 457.285 386.615 449.45 376.95 449.45C367.285 449.45 359.45 457.285 359.45 466.95C359.45 476.615 367.285 484.45 376.95 484.45Z" fill="#F8B9B6"/>
<path d="M299.01 439.45C308.675 439.45 316.51 431.615 316.51 421.95C316.51 412.285 308.675 404.45 299.01 404.45C289.345 404.45 281.51 412.285 281.51 421.95C281.51 431.615 289.345 439.45 299.01 439.45Z" fill="#F8B9B6"/>
<path d="M299 349.45C308.665 349.45 316.5 341.615 316.5 331.95C316.5 322.285 308.665 314.45 299 314.45C289.335 314.45 281.5 322.285 281.5 331.95C281.5 341.615 289.335 349.45 299 349.45Z" fill="#F8B9B6"/>
<path d="M376.95 304.45C386.615 304.45 394.45 296.615 394.45 286.95C394.45 277.285 386.615 269.45 376.95 269.45C367.285 269.45 359.45 277.285 359.45 286.95C359.45 296.615 367.285 304.45 376.95 304.45Z" fill="#F8B9B6"/>
<path d="M454.89 349.45C464.555 349.45 472.39 341.615 472.39 331.95C472.39 322.285 464.555 314.45 454.89 314.45C445.225 314.45 437.39 322.285 437.39 331.95C437.39 341.615 445.225 349.45 454.89 349.45Z" fill="#F8B9B6"/>
<path d="M454.89 439.45C464.555 439.45 472.39 431.615 472.39 421.95C472.39 412.285 464.555 404.45 454.89 404.45C445.225 404.45 437.39 412.285 437.39 421.95C437.39 431.615 445.225 439.45 454.89 439.45Z" fill="#F8B9B6"/>
<path d="M330.37 568.32C340.035 568.32 347.87 560.485 347.87 550.82C347.87 541.155 340.035 533.32 330.37 533.32C320.705 533.32 312.87 541.155 312.87 550.82C312.87 560.485 320.705 568.32 330.37 568.32Z" fill="#F8B9B6"/>
<path d="M249.67 521.73C259.335 521.73 267.17 513.895 267.17 504.23C267.17 494.565 259.335 486.73 249.67 486.73C240.005 486.73 232.17 494.565 232.17 504.23C232.17 513.895 240.005 521.73 249.67 521.73Z" fill="#F8B9B6"/>
<path d="M203.08 441.04C212.745 441.04 220.58 433.205 220.58 423.54C220.58 413.875 212.745 406.04 203.08 406.04C193.415 406.04 185.58 413.875 185.58 423.54C185.58 433.205 193.415 441.04 203.08 441.04Z" fill="#F8B9B6"/>
<path d="M203.08 347.87C212.745 347.87 220.58 340.035 220.58 330.37C220.58 320.705 212.745 312.87 203.08 312.87C193.415 312.87 185.58 320.705 185.58 330.37C185.58 340.035 193.415 347.87 203.08 347.87Z" fill="#F8B9B6"/>
<path d="M249.66 267.17C259.325 267.17 267.16 259.335 267.16 249.67C267.16 240.005 259.325 232.17 249.66 232.17C239.995 232.17 232.16 240.005 232.16 249.67C232.16 259.335 239.995 267.17 249.66 267.17Z" fill="#F8B9B6"/>
<path d="M330.35 220.58C340.015 220.58 347.85 212.745 347.85 203.08C347.85 193.415 340.015 185.58 330.35 185.58C320.685 185.58 312.85 193.415 312.85 203.08C312.85 212.745 320.685 220.58 330.35 220.58Z" fill="#F8B9B6"/>
<path d="M423.53 220.58C433.195 220.58 441.03 212.745 441.03 203.08C441.03 193.415 433.195 185.58 423.53 185.58C413.865 185.58 406.03 193.415 406.03 203.08C406.03 212.745 413.865 220.58 423.53 220.58Z" fill="#F8B9B6"/>
<path d="M504.22 267.16C513.885 267.16 521.72 259.325 521.72 249.66C521.72 239.995 513.885 232.16 504.22 232.16C494.555 232.16 486.72 239.995 486.72 249.66C486.72 259.325 494.555 267.16 504.22 267.16Z" fill="#F8B9B6"/>
<path d="M550.81 347.85C560.475 347.85 568.31 340.015 568.31 330.35C568.31 320.685 560.475 312.85 550.81 312.85C541.145 312.85 533.31 320.685 533.31 330.35C533.31 340.015 541.145 347.85 550.81 347.85Z" fill="#F8B9B6"/>
<path d="M550.82 441.03C560.485 441.03 568.32 433.195 568.32 423.53C568.32 413.865 560.485 406.03 550.82 406.03C541.155 406.03 533.32 413.865 533.32 423.53C533.32 433.195 541.155 441.03 550.82 441.03Z" fill="#F8B9B6"/>
<path d="M504.23 521.72C513.895 521.72 521.73 513.885 521.73 504.22C521.73 494.555 513.895 486.72 504.23 486.72C494.565 486.72 486.73 494.555 486.73 504.22C486.73 513.885 494.565 521.72 504.23 521.72Z" fill="#F8B9B6"/>
<path d="M423.54 568.31C433.205 568.31 441.04 560.475 441.04 550.81C441.04 541.145 433.205 533.31 423.54 533.31C413.875 533.31 406.04 541.145 406.04 550.81C406.04 560.475 413.875 568.31 423.54 568.31Z" fill="#F8B9B6"/>
<path d="M410.04 662.41C419.705 662.41 427.54 654.575 427.54 644.91C427.54 635.245 419.705 627.41 410.04 627.41C400.375 627.41 392.54 635.245 392.54 644.91C392.54 654.575 400.375 662.41 410.04 662.41Z" fill="#F8B9B6"/>
<path d="M339.56 661.85C349.225 661.85 357.06 654.015 357.06 644.35C357.06 634.685 349.225 626.85 339.56 626.85C329.895 626.85 322.06 634.685 322.06 644.35C322.06 654.015 329.895 661.85 339.56 661.85Z" fill="#F8B9B6"/>
<path d="M271.62 643.06C281.285 643.06 289.12 635.225 289.12 625.56C289.12 615.895 281.285 608.06 271.62 608.06C261.955 608.06 254.12 615.895 254.12 625.56C254.12 635.225 261.955 643.06 271.62 643.06Z" fill="#F8B9B6"/>
<path d="M210.87 607.32C220.535 607.32 228.37 599.485 228.37 589.82C228.37 580.155 220.535 572.32 210.87 572.32C201.205 572.32 193.37 580.155 193.37 589.82C193.37 599.485 201.205 607.32 210.87 607.32Z" fill="#F8B9B6"/>
<path d="M161.43 557.09C171.095 557.09 178.93 549.255 178.93 539.59C178.93 529.925 171.095 522.09 161.43 522.09C151.765 522.09 143.93 529.925 143.93 539.59C143.93 549.255 151.765 557.09 161.43 557.09Z" fill="#F8B9B6"/>
<path d="M126.68 495.76C136.345 495.76 144.18 487.925 144.18 478.26C144.18 468.595 136.345 460.76 126.68 460.76C117.015 460.76 109.18 468.595 109.18 478.26C109.18 487.925 117.015 495.76 126.68 495.76Z" fill="#F8B9B6"/>
<path d="M108.98 427.54C118.645 427.54 126.48 419.705 126.48 410.04C126.48 400.375 118.645 392.54 108.98 392.54C99.315 392.54 91.48 400.375 91.48 410.04C91.48 419.705 99.315 427.54 108.98 427.54Z" fill="#F8B9B6"/>
<path d="M109.55 357.06C119.215 357.06 127.05 349.225 127.05 339.56C127.05 329.895 119.215 322.06 109.55 322.06C99.8848 322.06 92.0498 329.895 92.0498 339.56C92.0498 349.225 99.8848 357.06 109.55 357.06Z" fill="#F8B9B6"/>
<path d="M128.34 289.12C138.005 289.12 145.84 281.285 145.84 271.62C145.84 261.955 138.005 254.12 128.34 254.12C118.675 254.12 110.84 261.955 110.84 271.62C110.84 281.285 118.675 289.12 128.34 289.12Z" fill="#F8B9B6"/>
<path d="M164.07 228.37C173.735 228.37 181.57 220.535 181.57 210.87C181.57 201.205 173.735 193.37 164.07 193.37C154.405 193.37 146.57 201.205 146.57 210.87C146.57 220.535 154.405 228.37 164.07 228.37Z" fill="#F8B9B6"/>
<path d="M214.31 178.93C223.975 178.93 231.81 171.095 231.81 161.43C231.81 151.765 223.975 143.93 214.31 143.93C204.645 143.93 196.81 151.765 196.81 161.43C196.81 171.095 204.645 178.93 214.31 178.93Z" fill="#F8B9B6"/>
<path d="M275.63 144.18C285.295 144.18 293.13 136.345 293.13 126.68C293.13 117.015 285.295 109.18 275.63 109.18C265.965 109.18 258.13 117.015 258.13 126.68C258.13 136.345 265.965 144.18 275.63 144.18Z" fill="#F8B9B6"/>
<path d="M343.86 126.48C353.525 126.48 361.36 118.645 361.36 108.98C361.36 99.315 353.525 91.48 343.86 91.48C334.195 91.48 326.36 99.315 326.36 108.98C326.36 118.645 334.195 126.48 343.86 126.48Z" fill="#F8B9B6"/>
<path d="M414.34 127.05C424.005 127.05 431.84 119.215 431.84 109.55C431.84 99.8848 424.005 92.0498 414.34 92.0498C404.675 92.0498 396.84 99.8848 396.84 109.55C396.84 119.215 404.675 127.05 414.34 127.05Z" fill="#F8B9B6"/>
<path d="M482.27 145.84C491.935 145.84 499.77 138.005 499.77 128.34C499.77 118.675 491.935 110.84 482.27 110.84C472.605 110.84 464.77 118.675 464.77 128.34C464.77 138.005 472.605 145.84 482.27 145.84Z" fill="#F8B9B6"/>
<path d="M543.03 181.57C552.695 181.57 560.53 173.735 560.53 164.07C560.53 154.405 552.695 146.57 543.03 146.57C533.365 146.57 525.53 154.405 525.53 164.07C525.53 173.735 533.365 181.57 543.03 181.57Z" fill="#F8B9B6"/>
<path d="M592.47 231.81C602.135 231.81 609.97 223.975 609.97 214.31C609.97 204.645 602.135 196.81 592.47 196.81C582.805 196.81 574.97 204.645 574.97 214.31C574.97 223.975 582.805 231.81 592.47 231.81Z" fill="#F8B9B6"/>
<path d="M627.22 293.13C636.885 293.13 644.72 285.295 644.72 275.63C644.72 265.965 636.885 258.13 627.22 258.13C617.555 258.13 609.72 265.965 609.72 275.63C609.72 285.295 617.555 293.13 627.22 293.13Z" fill="#F8B9B6"/>
<path d="M644.91 361.36C654.575 361.36 662.41 353.525 662.41 343.86C662.41 334.195 654.575 326.36 644.91 326.36C635.245 326.36 627.41 334.195 627.41 343.86C627.41 353.525 635.245 361.36 644.91 361.36Z" fill="#F8B9B6"/>
<path d="M644.35 431.84C654.015 431.84 661.85 424.005 661.85 414.34C661.85 404.675 654.015 396.84 644.35 396.84C634.685 396.84 626.85 404.675 626.85 414.34C626.85 424.005 634.685 431.84 644.35 431.84Z" fill="#F8B9B6"/>
<path d="M625.56 499.77C635.225 499.77 643.06 491.935 643.06 482.27C643.06 472.605 635.225 464.77 625.56 464.77C615.895 464.77 608.06 472.605 608.06 482.27C608.06 491.935 615.895 499.77 625.56 499.77Z" fill="#F8B9B6"/>
<path d="M589.83 560.53C599.495 560.53 607.33 552.695 607.33 543.03C607.33 533.365 599.495 525.53 589.83 525.53C580.165 525.53 572.33 533.365 572.33 543.03C572.33 552.695 580.165 560.53 589.83 560.53Z" fill="#F8B9B6"/>
<path d="M539.59 609.97C549.255 609.97 557.09 602.135 557.09 592.47C557.09 582.805 549.255 574.97 539.59 574.97C529.925 574.97 522.09 582.805 522.09 592.47C522.09 602.135 529.925 609.97 539.59 609.97Z" fill="#F8B9B6"/>
<path d="M478.26 644.72C487.925 644.72 495.76 636.885 495.76 627.22C495.76 617.555 487.925 609.72 478.26 609.72C468.595 609.72 460.76 617.555 460.76 627.22C460.76 636.885 468.595 644.72 478.26 644.72Z" fill="#F8B9B6"/>
<path d="M349.8 753.42C359.465 753.42 367.3 745.585 367.3 735.92C367.3 726.255 359.465 718.42 349.8 718.42C340.135 718.42 332.3 726.255 332.3 735.92C332.3 745.585 340.135 753.42 349.8 753.42Z" fill="#F8B9B6"/>
<path d="M303.18 746.81C312.845 746.81 320.68 738.975 320.68 729.31C320.68 719.645 312.845 711.81 303.18 711.81C293.515 711.81 285.68 719.645 285.68 729.31C285.68 738.975 293.515 746.81 303.18 746.81Z" fill="#F8B9B6"/>
<path d="M257.82 734.17C267.485 734.17 275.32 726.335 275.32 716.67C275.32 707.005 267.485 699.17 257.82 699.17C248.155 699.17 240.32 707.005 240.32 716.67C240.32 726.335 248.155 734.17 257.82 734.17Z" fill="#F8B9B6"/>
<path d="M214.49 715.71C224.155 715.71 231.99 707.875 231.99 698.21C231.99 688.545 224.155 680.71 214.49 680.71C204.825 680.71 196.99 688.545 196.99 698.21C196.99 707.875 204.825 715.71 214.49 715.71Z" fill="#F8B9B6"/>
<path d="M173.95 691.76C183.615 691.76 191.45 683.925 191.45 674.26C191.45 664.595 183.615 656.76 173.95 656.76C164.285 656.76 156.45 664.595 156.45 674.26C156.45 683.925 164.285 691.76 173.95 691.76Z" fill="#F8B9B6"/>
<path d="M136.88 662.72C146.545 662.72 154.38 654.885 154.38 645.22C154.38 635.555 146.545 627.72 136.88 627.72C127.215 627.72 119.38 635.555 119.38 645.22C119.38 654.885 127.215 662.72 136.88 662.72Z" fill="#F8B9B6"/>
<path d="M103.92 629.09C113.585 629.09 121.42 621.255 121.42 611.59C121.42 601.925 113.585 594.09 103.92 594.09C94.2549 594.09 86.4199 601.925 86.4199 611.59C86.4199 621.255 94.2549 629.09 103.92 629.09Z" fill="#F8B9B6"/>
<path d="M75.6299 591.44C85.2949 591.44 93.1299 583.605 93.1299 573.94C93.1299 564.275 85.2949 556.44 75.6299 556.44C65.9649 556.44 58.1299 564.275 58.1299 573.94C58.1299 583.605 65.9649 591.44 75.6299 591.44Z" fill="#F8B9B6"/>
<path d="M52.4902 550.43C62.1552 550.43 69.9902 542.595 69.9902 532.93C69.9902 523.265 62.1552 515.43 52.4902 515.43C42.8253 515.43 34.9902 523.265 34.9902 532.93C34.9902 542.595 42.8253 550.43 52.4902 550.43Z" fill="#F8B9B6"/>
<path d="M34.9102 506.74C44.5751 506.74 52.4102 498.905 52.4102 489.24C52.4102 479.575 44.5751 471.74 34.9102 471.74C25.2452 471.74 17.4102 479.575 17.4102 489.24C17.4102 498.905 25.2452 506.74 34.9102 506.74Z" fill="#F8B9B6"/>
<path d="M23.1797 461.14C32.8447 461.14 40.6797 453.305 40.6797 443.64C40.6797 433.975 32.8447 426.14 23.1797 426.14C13.5147 426.14 5.67969 433.975 5.67969 443.64C5.67969 453.305 13.5147 461.14 23.1797 461.14Z" fill="#F8B9B6"/>
<path d="M17.5 414.39C27.165 414.39 35 406.555 35 396.89C35 387.225 27.165 379.39 17.5 379.39C7.83502 379.39 0 387.225 0 396.89C0 406.555 7.83502 414.39 17.5 414.39Z" fill="#F8B9B6"/>
<path d="M17.9697 367.3C27.6347 367.3 35.4697 359.465 35.4697 349.8C35.4697 340.135 27.6347 332.3 17.9697 332.3C8.30474 332.3 0.469727 340.135 0.469727 349.8C0.469727 359.465 8.30474 367.3 17.9697 367.3Z" fill="#F8B9B6"/>
<path d="M24.5898 320.68C34.2548 320.68 42.0898 312.845 42.0898 303.18C42.0898 293.515 34.2548 285.68 24.5898 285.68C14.9249 285.68 7.08984 293.515 7.08984 303.18C7.08984 312.845 14.9249 320.68 24.5898 320.68Z" fill="#F8B9B6"/>
<path d="M37.23 275.32C46.895 275.32 54.73 267.485 54.73 257.82C54.73 248.155 46.895 240.32 37.23 240.32C27.565 240.32 19.73 248.155 19.73 257.82C19.73 267.485 27.565 275.32 37.23 275.32Z" fill="#F8B9B6"/>
<path d="M55.6899 231.99C65.3549 231.99 73.1899 224.155 73.1899 214.49C73.1899 204.825 65.3549 196.99 55.6899 196.99C46.025 196.99 38.1899 204.825 38.1899 214.49C38.1899 224.155 46.025 231.99 55.6899 231.99Z" fill="#F8B9B6"/>
<path d="M79.6396 191.45C89.3046 191.45 97.1396 183.615 97.1396 173.95C97.1396 164.285 89.3046 156.45 79.6396 156.45C69.9747 156.45 62.1396 164.285 62.1396 173.95C62.1396 183.615 69.9747 191.45 79.6396 191.45Z" fill="#F8B9B6"/>
<path d="M108.68 154.38C118.345 154.38 126.18 146.545 126.18 136.88C126.18 127.215 118.345 119.38 108.68 119.38C99.0147 119.38 91.1797 127.215 91.1797 136.88C91.1797 146.545 99.0147 154.38 108.68 154.38Z" fill="#F8B9B6"/>
<path d="M142.31 121.42C151.975 121.42 159.81 113.585 159.81 103.92C159.81 94.2549 151.975 86.4199 142.31 86.4199C132.645 86.4199 124.81 94.2549 124.81 103.92C124.81 113.585 132.645 121.42 142.31 121.42Z" fill="#F8B9B6"/>
<path d="M179.95 93.1299C189.615 93.1299 197.45 85.2949 197.45 75.6299C197.45 65.9649 189.615 58.1299 179.95 58.1299C170.285 58.1299 162.45 65.9649 162.45 75.6299C162.45 85.2949 170.285 93.1299 179.95 93.1299Z" fill="#F8B9B6"/>
<path d="M220.97 69.9902C230.635 69.9902 238.47 62.1552 238.47 52.4902C238.47 42.8253 230.635 34.9902 220.97 34.9902C211.305 34.9902 203.47 42.8253 203.47 52.4902C203.47 62.1552 211.305 69.9902 220.97 69.9902Z" fill="#F8B9B6"/>
<path d="M264.65 52.4102C274.315 52.4102 282.15 44.5751 282.15 34.9102C282.15 25.2452 274.315 17.4102 264.65 17.4102C254.985 17.4102 247.15 25.2452 247.15 34.9102C247.15 44.5751 254.985 52.4102 264.65 52.4102Z" fill="#F8B9B6"/>
<path d="M310.26 40.6802C319.925 40.6802 327.76 32.8452 327.76 23.1802C327.76 13.5152 319.925 5.68018 310.26 5.68018C300.595 5.68018 292.76 13.5152 292.76 23.1802C292.76 32.8452 300.595 40.6802 310.26 40.6802Z" fill="#F8B9B6"/>
<path d="M357.01 35C366.675 35 374.51 27.165 374.51 17.5C374.51 7.83502 366.675 0 357.01 0C347.345 0 339.51 7.83502 339.51 17.5C339.51 27.165 347.345 35 357.01 35Z" fill="#F8B9B6"/>
<path d="M404.09 35.4697C413.755 35.4697 421.59 27.6347 421.59 17.9697C421.59 8.30474 413.755 0.469727 404.09 0.469727C394.425 0.469727 386.59 8.30474 386.59 17.9697C386.59 27.6347 394.425 35.4697 404.09 35.4697Z" fill="#F8B9B6"/>
<path d="M450.72 42.0898C460.385 42.0898 468.22 34.2548 468.22 24.5898C468.22 14.9249 460.385 7.08984 450.72 7.08984C441.055 7.08984 433.22 14.9249 433.22 24.5898C433.22 34.2548 441.055 42.0898 450.72 42.0898Z" fill="#F8B9B6"/>
<path d="M496.08 54.73C505.745 54.73 513.58 46.895 513.58 37.23C513.58 27.565 505.745 19.73 496.08 19.73C486.415 19.73 478.58 27.565 478.58 37.23C478.58 46.895 486.415 54.73 496.08 54.73Z" fill="#F8B9B6"/>
<path d="M539.4 73.1899C549.065 73.1899 556.9 65.3549 556.9 55.6899C556.9 46.025 549.065 38.1899 539.4 38.1899C529.735 38.1899 521.9 46.025 521.9 55.6899C521.9 65.3549 529.735 73.1899 539.4 73.1899Z" fill="#F8B9B6"/>
<path d="M579.94 97.1401C589.605 97.1401 597.44 89.3051 597.44 79.6401C597.44 69.9752 589.605 62.1401 579.94 62.1401C570.275 62.1401 562.44 69.9752 562.44 79.6401C562.44 89.3051 570.275 97.1401 579.94 97.1401Z" fill="#F8B9B6"/>
<path d="M617.01 126.18C626.675 126.18 634.51 118.345 634.51 108.68C634.51 99.0152 626.675 91.1802 617.01 91.1802C607.345 91.1802 599.51 99.0152 599.51 108.68C599.51 118.345 607.345 126.18 617.01 126.18Z" fill="#F8B9B6"/>
<path d="M649.98 159.81C659.645 159.81 667.48 151.975 667.48 142.31C667.48 132.645 659.645 124.81 649.98 124.81C640.315 124.81 632.48 132.645 632.48 142.31C632.48 151.975 640.315 159.81 649.98 159.81Z" fill="#F8B9B6"/>
<path d="M678.27 197.45C687.935 197.45 695.77 189.615 695.77 179.95C695.77 170.285 687.935 162.45 678.27 162.45C668.605 162.45 660.77 170.285 660.77 179.95C660.77 189.615 668.605 197.45 678.27 197.45Z" fill="#F8B9B6"/>
<path d="M701.4 238.47C711.065 238.47 718.9 230.635 718.9 220.97C718.9 211.305 711.065 203.47 701.4 203.47C691.735 203.47 683.9 211.305 683.9 220.97C683.9 230.635 691.735 238.47 701.4 238.47Z" fill="#F8B9B6"/>
<path d="M718.99 282.15C728.655 282.15 736.49 274.315 736.49 264.65C736.49 254.985 728.655 247.15 718.99 247.15C709.325 247.15 701.49 254.985 701.49 264.65C701.49 274.315 709.325 282.15 718.99 282.15Z" fill="#F8B9B6"/>
<path d="M730.72 327.76C740.385 327.76 748.22 319.925 748.22 310.26C748.22 300.595 740.385 292.76 730.72 292.76C721.055 292.76 713.22 300.595 713.22 310.26C713.22 319.925 721.055 327.76 730.72 327.76Z" fill="#F8B9B6"/>
<path d="M736.39 374.51C746.055 374.51 753.89 366.675 753.89 357.01C753.89 347.345 746.055 339.51 736.39 339.51C726.725 339.51 718.89 347.345 718.89 357.01C718.89 366.675 726.725 374.51 736.39 374.51Z" fill="#F8B9B6"/>
<path d="M735.92 421.59C745.585 421.59 753.42 413.755 753.42 404.09C753.42 394.425 745.585 386.59 735.92 386.59C726.255 386.59 718.42 394.425 718.42 404.09C718.42 413.755 726.255 421.59 735.92 421.59Z" fill="#F8B9B6"/>
<path d="M729.31 468.22C738.975 468.22 746.81 460.385 746.81 450.72C746.81 441.055 738.975 433.22 729.31 433.22C719.645 433.22 711.81 441.055 711.81 450.72C711.81 460.385 719.645 468.22 729.31 468.22Z" fill="#F8B9B6"/>
<path d="M716.66 513.58C726.325 513.58 734.16 505.745 734.16 496.08C734.16 486.415 726.325 478.58 716.66 478.58C706.995 478.58 699.16 486.415 699.16 496.08C699.16 505.745 706.995 513.58 716.66 513.58Z" fill="#F8B9B6"/>
<path d="M698.21 556.9C707.875 556.9 715.71 549.065 715.71 539.4C715.71 529.735 707.875 521.9 698.21 521.9C688.545 521.9 680.71 529.735 680.71 539.4C680.71 549.065 688.545 556.9 698.21 556.9Z" fill="#F8B9B6"/>
<path d="M674.26 597.44C683.925 597.44 691.76 589.605 691.76 579.94C691.76 570.275 683.925 562.44 674.26 562.44C664.595 562.44 656.76 570.275 656.76 579.94C656.76 589.605 664.595 597.44 674.26 597.44Z" fill="#F8B9B6"/>
<path d="M645.22 634.51C654.885 634.51 662.72 626.675 662.72 617.01C662.72 607.345 654.885 599.51 645.22 599.51C635.555 599.51 627.72 607.345 627.72 617.01C627.72 626.675 635.555 634.51 645.22 634.51Z" fill="#F8B9B6"/>
<path d="M611.59 667.48C621.255 667.48 629.09 659.645 629.09 649.98C629.09 640.315 621.255 632.48 611.59 632.48C601.925 632.48 594.09 640.315 594.09 649.98C594.09 659.645 601.925 667.48 611.59 667.48Z" fill="#F8B9B6"/>
<path d="M573.94 695.77C583.605 695.77 591.44 687.935 591.44 678.27C591.44 668.605 583.605 660.77 573.94 660.77C564.275 660.77 556.44 668.605 556.44 678.27C556.44 687.935 564.275 695.77 573.94 695.77Z" fill="#F8B9B6"/>
<path d="M532.93 718.9C542.595 718.9 550.43 711.065 550.43 701.4C550.43 691.735 542.595 683.9 532.93 683.9C523.265 683.9 515.43 691.735 515.43 701.4C515.43 711.065 523.265 718.9 532.93 718.9Z" fill="#F8B9B6"/>
<path d="M489.24 736.49C498.905 736.49 506.74 728.655 506.74 718.99C506.74 709.325 498.905 701.49 489.24 701.49C479.575 701.49 471.74 709.325 471.74 718.99C471.74 728.655 479.575 736.49 489.24 736.49Z" fill="#F8B9B6"/>
<path d="M443.64 748.22C453.305 748.22 461.14 740.385 461.14 730.72C461.14 721.055 453.305 713.22 443.64 713.22C433.975 713.22 426.14 721.055 426.14 730.72C426.14 740.385 433.975 748.22 443.64 748.22Z" fill="#F8B9B6"/>
<path d="M396.89 753.89C406.555 753.89 414.39 746.055 414.39 736.39C414.39 726.725 406.555 718.89 396.89 718.89C387.225 718.89 379.39 726.725 379.39 736.39C379.39 746.055 387.225 753.89 396.89 753.89Z" fill="#F8B9B6"/>
<path d="M454.89 421.59L299.01 331.95" stroke="#F8B9B6" stroke-width="2" stroke-miterlimit="10"/>
<path d="M299.01 421.59L454.89 331.95" stroke="#F8B9B6" stroke-width="2" stroke-miterlimit="10"/>
<path d="M450.72 24.5898L414.34 109.55L423.53 203.08L376.95 286.95V466.95" stroke="#F8B9B6" stroke-width="2" stroke-miterlimit="10"/>
<path d="M404.09 17.9697L414.34 109.55" stroke="#F8B9B6" stroke-width="2" stroke-miterlimit="10"/>
<path d="M496.08 37.23L482.27 128.34L423.53 203.08" stroke="#F8B9B6" stroke-width="2" stroke-miterlimit="10"/>
<path d="M539.4 55.6899L482.27 128.34" stroke="#F8B9B6" stroke-width="2" stroke-miterlimit="10"/>
<path d="M617.01 108.68L543.03 164.07" stroke="#F8B9B6" stroke-width="2" stroke-miterlimit="10"/>
<path d="M649.98 142.31L592.47 214.31L504.23 249.68" stroke="#F8B9B6" stroke-width="2" stroke-miterlimit="10"/>
<path d="M678.27 179.95L592.47 214.31" stroke="#F8B9B6" stroke-width="2" stroke-miterlimit="10"/>
<path d="M701.48 220.97L627.22 275.63L550.82 330.37L454.89 332.3L504.23 249.68L543.03 164.07L579.94 79.6401" stroke="#F8B9B6" stroke-width="2" stroke-miterlimit="10"/>
<path d="M718.99 264.65L627.22 275.63" stroke="#F8B9B6" stroke-width="2" stroke-miterlimit="10"/>
<path d="M730.72 310.26L644.91 343.86L550.82 330.37" stroke="#F8B9B6" stroke-width="2" stroke-miterlimit="10"/>
<path d="M736.49 357.06L644.91 343.86" stroke="#F8B9B6" stroke-width="2" stroke-miterlimit="10"/>
<path d="M729.31 451.11L644.35 414.34" stroke="#F8B9B6" stroke-width="2" stroke-miterlimit="10"/>
<path d="M716.66 496.08L625.56 482.27L550.82 423.53" stroke="#F8B9B6" stroke-width="2" stroke-miterlimit="10"/>
<path d="M698.21 539.59L625.56 482.27" stroke="#F8B9B6" stroke-width="2" stroke-miterlimit="10"/>
<path d="M674.25 579.94L589.83 543.03L504.23 504.23L454.89 421.59L550.82 423.53L644.35 414.34L736.39 404.44" stroke="#F8B9B6" stroke-width="2" stroke-miterlimit="10"/>
<path d="M644.35 617.01L589.83 543.03" stroke="#F8B9B6" stroke-width="2" stroke-miterlimit="10"/>
<path d="M611.59 649.98L539.59 592.47L504.23 504.23" stroke="#F8B9B6" stroke-width="2" stroke-miterlimit="10"/>
<path d="M573.94 678.27L539.59 592.47" stroke="#F8B9B6" stroke-width="2" stroke-miterlimit="10"/>
<path d="M489.24 718.99L478.26 627.22" stroke="#F8B9B6" stroke-width="2" stroke-miterlimit="10"/>
<path d="M443.64 730.72L410.04 645.22L423.53 550.82" stroke="#F8B9B6" stroke-width="2" stroke-miterlimit="10"/>
<path d="M396.89 736.39L410.04 645.22" stroke="#F8B9B6" stroke-width="2" stroke-miterlimit="10"/>
<path d="M349.8 735.92L339.56 645.22L330.37 550.82L376.95 466.95L423.53 550.82L478.26 627.22L532.93 701.48" stroke="#F8B9B6" stroke-width="2" stroke-miterlimit="10"/>
<path d="M303.18 729.31L339.56 645.22" stroke="#F8B9B6" stroke-width="2" stroke-miterlimit="10"/>
<path d="M257.82 716.67L271.62 625.56L330.37 550.82" stroke="#F8B9B6" stroke-width="2" stroke-miterlimit="10"/>
<path d="M214.49 698.21L271.62 625.56" stroke="#F8B9B6" stroke-width="2" stroke-miterlimit="10"/>
<path d="M136.88 645.22L210.87 589.82" stroke="#F8B9B6" stroke-width="2" stroke-miterlimit="10"/>
<path d="M103.92 611.59L161.43 539.59L249.68 504.23" stroke="#F8B9B6" stroke-width="2" stroke-miterlimit="10"/>
<path d="M75.6299 573.94L161.43 539.59" stroke="#F8B9B6" stroke-width="2" stroke-miterlimit="10"/>
<path d="M52.4902 533.31L127.05 478.68L203.08 423.54" stroke="#F8B9B6" stroke-width="2" stroke-miterlimit="10"/>
<path d="M34.9102 489.24L127.05 478.68" stroke="#F8B9B6" stroke-width="2" stroke-miterlimit="10"/>
<path d="M17.3999 396.89L108.98 410.04L203.08 423.54L299 421.95L249.68 504.23L210.87 589.83L173.95 674.26" stroke="#F8B9B6" stroke-width="2" stroke-miterlimit="10"/>
<path d="M23.1797 443.64L108.98 410.04" stroke="#F8B9B6" stroke-width="2" stroke-miterlimit="10"/>
<path d="M17.3999 349.8L109.55 339.56L203.08 331.95" stroke="#F8B9B6" stroke-width="2" stroke-miterlimit="10"/>
<path d="M23.1797 303.18L109.55 339.56" stroke="#F8B9B6" stroke-width="2" stroke-miterlimit="10"/>
<path d="M54.73 214.49L128.34 271.62" stroke="#F8B9B6" stroke-width="2" stroke-miterlimit="10"/>
<path d="M79.6397 173.95L164.07 210.87L249.66 249.66L299 331.95H203.08L128.34 271.62L35.4697 257.82" stroke="#F8B9B6" stroke-width="2" stroke-miterlimit="10"/>
<path d="M108.68 136.88L164.07 210.87" stroke="#F8B9B6" stroke-width="2" stroke-miterlimit="10"/>
<path d="M142.31 103.92L214.31 161.43L249.66 249.66" stroke="#F8B9B6" stroke-width="2" stroke-miterlimit="10"/>
<path d="M179.95 75.6299L214.31 161.43" stroke="#F8B9B6" stroke-width="2" stroke-miterlimit="10"/>
<path d="M220.97 52.4902L275.63 127.05L330.35 203.47L376.95 286.95" stroke="#F8B9B6" stroke-width="2" stroke-miterlimit="10"/>
<path d="M264.65 35L275.63 127.05" stroke="#F8B9B6" stroke-width="2" stroke-miterlimit="10"/>
<path d="M310.26 23.1802L343.86 109.55L330.35 203.47" stroke="#F8B9B6" stroke-width="2" stroke-miterlimit="10"/>
<path d="M357.01 17.9697L343.86 109.55" stroke="#F8B9B6" stroke-width="2" stroke-miterlimit="10"/>
</g>
</svg>