<svg width="110" height="29" viewBox="0 0 940 168" fill="none" xmlns="http://www.w3.org/2000/svg">
<path d="M88.1539 155.817L76.638 143.694C75.7037 144.493 73.5235 146.461 72.4573 147.128C67.8086 150.25 62.2295 151.682 56.6521 151.185C51.0747 150.688 45.8367 148.292 41.8133 144.397C37.7898 140.503 35.2246 135.346 34.5461 129.787C33.8676 124.229 35.117 118.606 38.0854 113.858V113.838L43.5838 105.425L60.9734 78.8557C63.3953 75.1491 64.2457 70.6322 63.3373 66.2987C62.429 61.9652 59.8364 58.17 56.1299 55.748V55.748L24.062 104.786L23.7186 105.393C23.1755 106.288 22.6524 107.19 22.1773 108.12C19.4551 113.427 17.9227 119.264 17.6869 125.224C17.451 131.183 18.5174 137.123 20.8116 142.628C28.2506 160.641 47.7286 171.058 66.8312 167.197C72.266 166.106 77.426 163.933 82.0046 160.808C83.5859 159.71 85.6423 157.969 88.1539 155.817Z" fill="#F8B9B6"/>
<path d="M22.6402 111.831L30.6262 97.133C29.596 96.4822 27.0325 95.0247 26.0702 94.2141C21.6573 90.76 18.5647 85.8949 17.3101 80.4332C16.0554 74.9714 16.7148 69.2444 19.1778 64.2107C21.6409 59.177 25.7582 55.1421 30.8406 52.7811C35.923 50.4202 41.6621 49.8766 47.0974 51.2413H47.1214L56.8244 53.8687L87.4428 62.1702C91.717 63.3283 96.2762 62.7414 100.118 60.5383C103.959 58.3353 106.768 54.6967 107.927 50.4227V50.4227L51.3659 35.1055L50.6831 34.9697C49.6689 34.7262 48.6467 34.5105 47.6125 34.3428C41.724 33.3941 35.6996 33.7403 29.9586 35.3574C24.2176 36.9746 18.8981 39.8237 14.3706 43.7065C-0.459447 56.3484 -4.34863 78.0943 5.22662 95.0687C7.93869 99.9009 11.5941 104.139 15.9758 107.531C17.5251 108.689 19.8171 110.106 22.6402 111.831Z" fill="#F8B9B6"/>
<path d="M44.2305 35.9274L60.6737 38.9661C60.9692 37.7882 61.5641 34.9012 62.0393 33.7312C63.9634 28.4695 67.6357 24.0279 72.442 21.1491C77.2484 18.2704 82.8974 17.129 88.4443 17.916C93.9913 18.7029 99.0999 21.3704 102.916 25.4724C106.732 29.5744 109.024 34.8622 109.408 40.4515V40.4795L109.904 50.5179L111.473 82.2025C111.693 86.6246 113.66 90.7783 116.942 93.7502C120.224 96.7222 124.552 98.2691 128.974 98.0508V98.0508L126.059 39.5411L125.98 38.8503C125.896 37.8081 125.788 36.7699 125.624 35.7357C124.709 29.843 122.52 24.2207 119.21 19.2604C115.899 14.3 111.548 10.1209 106.458 7.01397C89.8507 -3.1842 67.969 -0.173464 54.784 14.2014C51.0249 18.2738 48.123 23.0604 46.2509 28.2768C45.64 30.0936 45.0011 32.709 44.2305 35.9274Z" fill="#F8B9B6"/>
<path d="M123.089 33.0036L125.281 49.5706C126.479 49.4908 129.421 49.1713 130.679 49.2552C136.276 49.4601 141.633 51.5801 145.855 55.2609C150.076 58.9416 152.906 63.9599 153.872 69.4768C154.837 74.9937 153.88 80.6748 151.159 85.5704C148.438 90.466 144.12 94.2793 138.925 96.3728H138.905L129.509 99.9665L99.8571 111.251C97.8061 112.031 95.929 113.208 94.3331 114.714C92.7372 116.221 91.4539 118.027 90.5564 120.029C89.659 122.032 89.1651 124.191 89.1029 126.385C89.0407 128.579 89.4115 130.763 90.194 132.813V132.813L144.946 111.966L145.577 111.674C146.544 111.275 147.498 110.847 148.428 110.372C153.751 107.68 158.422 103.86 162.116 99.1773C165.811 94.4946 168.439 89.0625 169.819 83.2597C174.387 64.3168 164.752 44.4396 147.027 36.3338C141.991 34.0182 136.542 32.7377 131.003 32.5684C129.074 32.5444 126.387 32.744 123.089 33.0036Z" fill="#F8B9B6"/>
<path d="M150.237 107.103L135.148 114.291C135.599 115.421 136.813 118.104 137.116 119.33C138.655 124.718 138.297 130.471 136.102 135.627C133.906 140.783 130.007 145.028 125.056 147.652C120.104 150.277 114.402 151.121 108.903 150.044C103.404 148.966 98.4414 146.033 94.8463 141.735V141.715L88.5253 133.904L68.6281 109.192C65.8494 105.747 61.8166 103.546 57.4162 103.074C53.0157 102.602 48.6078 103.896 45.1611 106.672L81.8969 152.304L82.3681 152.819C83.0469 153.618 83.7457 154.389 84.4844 155.127C88.6888 159.359 93.7653 162.623 99.3602 164.691C104.955 166.76 110.934 167.584 116.88 167.106C136.31 165.597 152.238 150.288 154.47 130.93C155.116 125.425 154.649 119.847 153.096 114.526C152.525 112.661 151.503 110.162 150.237 107.103Z" fill="#F8B9B6"/>
<path d="M238.071 139.098V158.894H228V9.07031H238.43V89.4203C245.796 74.2854 259.895 65.2937 275.836 65.2937C300.984 65.2937 318.147 84.2986 318.147 113.13C318.147 142.363 300.567 162.807 274.987 162.807C267.23 162.712 259.656 160.438 253.129 156.246C246.602 152.054 241.384 146.112 238.071 139.098V139.098ZM307.127 113.202C307.127 89.895 294.179 75.1774 273.807 75.1774C253.436 75.1774 237.61 92.1393 237.84 114.626C238.071 137.112 252.961 153.067 273.405 153.067C293.848 153.067 307.17 137.659 307.17 113.13L307.127 113.202Z" fill="white"/>
<path d="M387.392 113.953C387.392 86.7619 408.037 65.2969 436.307 65.2969C464.576 65.2969 484.977 86.7619 484.977 113.953C484.977 141.144 464.317 162.868 436.307 162.868C408.296 162.868 387.392 141.144 387.392 113.953ZM473.87 113.953C473.87 92.272 457.714 75.1086 436.249 75.1086C414.784 75.1086 398.426 92.272 398.426 113.953C398.426 135.634 414.985 152.998 436.249 152.998C457.513 152.998 473.87 135.878 473.87 113.953Z" fill="white"/>
<path d="M502.688 142.983L510.946 137.458L511.767 137.66C517.521 148.09 526.686 153.615 538.137 153.615C550.611 153.615 559.602 147.069 559.602 137.789C559.602 129.819 555.286 124.712 537.116 118.166C512.169 108.973 506.041 101.405 506.041 89.1334C506.041 76.0559 517.895 65.2227 536.094 65.2227C550.611 65.2227 562.264 72.5742 567.17 84.2275L559.976 89.1334L558.754 88.932C554.668 79.9403 546.079 74.4158 535.447 74.4158C524.197 74.4158 516.644 80.7603 516.644 88.932C516.644 96.4994 520.312 100.988 541.374 108.973C563.257 117.346 570.148 124.51 570.148 137.588C570.148 151.701 556.653 162.736 537.634 162.736C522.111 162.808 509.234 155.658 502.688 142.983Z" fill="white"/>
<path d="M586.922 142.983L595.094 137.458L595.914 137.66C601.669 148.09 610.833 153.615 622.285 153.615C634.758 153.615 643.75 147.069 643.75 137.789C643.75 129.819 639.434 124.712 621.264 118.166C596.317 108.973 590.188 101.405 590.188 89.1334C590.188 76.0559 602.043 65.2227 620.242 65.2227C634.758 65.2227 646.411 72.5742 651.317 84.2275L644.124 89.1334L642.887 88.932C638.801 79.9403 630.212 74.4158 619.595 74.4158C608.344 74.4158 600.777 80.7603 600.777 88.932C600.777 96.4994 604.46 100.988 625.522 108.973C647.39 117.346 654.295 124.51 654.295 137.588C654.295 151.701 640.801 162.736 621.796 162.736C606.345 162.808 593.468 155.658 586.922 142.983Z" fill="white"/>
<path d="M672.787 113.953C672.787 86.7619 693.432 65.2969 721.702 65.2969C749.971 65.2969 770.358 86.7619 770.358 113.953C770.358 141.144 749.712 162.868 721.702 162.868C693.691 162.868 672.787 141.144 672.787 113.953ZM759.265 113.953C759.265 92.272 743.109 75.1086 721.644 75.1086C700.179 75.1086 683.821 92.272 683.821 113.953C683.821 135.634 700.38 152.998 721.644 152.998C742.908 152.998 759.265 135.878 759.265 113.953Z" fill="white"/>
<path d="M939.987 102.904V158.897H929.6V108.4C929.6 85.2945 921.212 75.0798 904.855 75.0798C888.497 75.0798 874.196 92.0419 874.196 112.903V158.94H863.766V108.443C863.766 85.3376 855.393 75.123 839.035 75.123C822.678 75.123 808.564 92.085 808.564 112.946V158.983H798.134V69.1813H808.564V89.0062C815.93 73.8713 828.188 65.2969 842.301 65.2969C858.659 65.2969 869.089 74.2886 872.355 91.4664C879.922 73.8714 894.237 65.2969 907.933 65.2969C927.916 65.2969 939.987 78.173 939.987 102.904Z" fill="white"/>
<path d="M377.464 150.983L376.831 151.242C369.825 154.119 364.142 154.234 360.43 151.716C356.718 149.199 355.05 144.523 355.05 137.33L355.452 9H345.036L344.619 138.955C344.619 148.767 347.496 155.673 353.05 159.5C356.561 161.745 360.667 162.878 364.832 162.751C369.356 162.678 373.827 161.776 378.025 160.09L378.399 159.946L377.464 150.983Z" fill="white"/>
</svg>
