<svg width="110" height="29" viewBox="0 0 159 29" fill="none" xmlns="http://www.w3.org/2000/svg">
<path d="M14.9113 26.1875L12.9634 24.137C12.8054 24.272 12.4366 24.605 12.2563 24.7178C11.4699 25.2458 10.5262 25.488 9.58278 25.404C8.63935 25.3199 7.75334 24.9146 7.07277 24.2559C6.3922 23.5971 5.95828 22.7248 5.84352 21.7846C5.72875 20.8444 5.94008 19.8933 6.4422 19.0902V19.0868L7.37226 17.6637L10.3137 13.1694C10.7234 12.5425 10.8672 11.7784 10.7136 11.0454C10.5599 10.3124 10.1214 9.67043 9.49444 9.26074L4.07011 17.5556L4.01202 17.6583C3.92017 17.8096 3.83169 17.9622 3.75131 18.1196C3.29086 19.0173 3.03165 20.0045 2.99176 21.0126C2.95186 22.0207 3.13224 23.0254 3.52031 23.9566C4.77863 27.0035 8.07335 28.7656 11.3046 28.1125C12.2239 27.9279 13.0967 27.5604 13.8712 27.0318C14.1387 26.8461 14.4865 26.5516 14.9113 26.1875Z" fill="#F8B9B6"/>
<path d="M3.82961 18.7474L5.18046 16.2612C5.0062 16.1511 4.57258 15.9046 4.4098 15.7675C3.66336 15.1832 3.14025 14.3602 2.92802 13.4364C2.71579 12.5125 2.82733 11.5438 3.24396 10.6923C3.66059 9.84088 4.35703 9.15836 5.21672 8.75901C6.07642 8.35965 7.0472 8.2677 7.96659 8.49854H7.97064L9.61192 8.94297L14.7911 10.3472C15.5141 10.5431 16.2852 10.4438 16.935 10.0711C17.5848 9.6985 18.06 9.08302 18.256 8.36008L8.68861 5.76915L8.57312 5.74618C8.40156 5.70498 8.22865 5.66851 8.05371 5.64014C7.05768 5.47966 6.03863 5.53822 5.06753 5.81176C4.09644 6.0853 3.19664 6.56724 2.43081 7.22401C-0.0777161 9.36241 -0.735577 13.0408 0.88409 15.912C1.34284 16.7294 1.96116 17.4462 2.70233 18.02C2.9644 18.2159 3.35209 18.4556 3.82961 18.7474Z" fill="#F8B9B6"/>
<path d="M7.48169 5.90835L10.2631 6.42234C10.3131 6.22309 10.4137 5.73476 10.4941 5.53686C10.8195 4.64683 11.4407 3.89552 12.2537 3.40858C13.0667 2.92163 14.0222 2.72857 14.9605 2.86169C15.8988 2.9948 16.7629 3.44601 17.4084 4.13987C18.0539 4.83373 18.4416 5.72817 18.5066 6.6736V6.67833L18.5904 8.37635L18.8558 13.7358C18.8931 14.4838 19.2258 15.1864 19.781 15.6892C20.3361 16.1919 21.0682 16.4535 21.8162 16.4166L21.3232 6.51961L21.3096 6.40276C21.2955 6.22647 21.2772 6.05086 21.2495 5.87593C21.0947 4.87917 20.7244 3.92815 20.1645 3.08909C19.6046 2.25004 18.8685 1.54313 18.0075 1.0176C15.1984 -0.707433 11.4971 -0.198163 9.26683 2.23336C8.63098 2.92221 8.14012 3.73188 7.82345 4.61423C7.72011 4.92155 7.61205 5.36395 7.48169 5.90835Z" fill="#F8B9B6"/>
<path d="M20.8206 5.41379L21.1915 8.21613C21.3941 8.20262 21.8919 8.14859 22.1046 8.16277C23.0514 8.19743 23.9575 8.55604 24.6716 9.17864C25.3857 9.80124 25.8644 10.6501 26.0277 11.5833C26.191 12.5165 26.029 13.4774 25.5688 14.3055C25.1086 15.1336 24.3781 15.7787 23.4994 16.1328H23.496L21.9067 16.7407L16.891 18.6494C16.5441 18.7814 16.2266 18.9805 15.9566 19.2353C15.6867 19.49 15.4696 19.7955 15.3178 20.1343C15.166 20.473 15.0825 20.8383 15.0719 21.2094C15.0614 21.5804 15.1241 21.9499 15.2565 22.2967L24.5179 18.7703L24.6246 18.721C24.7881 18.6535 24.9495 18.5812 25.1069 18.5008C26.0072 18.0455 26.7974 17.3992 27.4223 16.6072C28.0472 15.8151 28.4918 14.8962 28.7251 13.9147C29.4978 10.7105 27.868 7.34821 24.8698 5.9771C24.0181 5.58542 23.0964 5.36883 22.1593 5.34017C21.8331 5.33612 21.3785 5.36989 20.8206 5.41379Z" fill="#F8B9B6"/>
<path d="M25.4129 17.9477L22.8605 19.1635C22.9368 19.3546 23.1422 19.8085 23.1935 20.0158C23.4538 20.9273 23.3933 21.9004 23.0219 22.7725C22.6505 23.6446 21.9909 24.3627 21.1534 24.8066C20.3159 25.2505 19.3514 25.3933 18.4212 25.2111C17.491 25.0289 16.6516 24.5327 16.0435 23.8056V23.8023L14.9743 22.4811L11.6086 18.3009C11.1386 17.7183 10.4565 17.3461 9.71212 17.2661C8.96777 17.1862 8.22216 17.4051 7.63916 17.8748L13.8531 25.5935L13.9328 25.6806C14.0476 25.8157 14.1658 25.9461 14.2907 26.071C15.0019 26.7868 15.8606 27.3389 16.807 27.6888C17.7534 28.0388 18.7647 28.1782 19.7705 28.0973C23.0571 27.842 25.7513 25.2524 26.1289 21.978C26.2381 21.0468 26.1591 20.1033 25.8965 19.2033C25.8 18.8879 25.6271 18.4651 25.4129 17.9477Z" fill="#F8B9B6"/>
<path d="M40.2699 23.3595V26.7081H38.5664V1.36523H40.3307V14.9565C41.5767 12.3965 43.9616 10.8755 46.6579 10.8755C50.9117 10.8755 53.8149 14.0902 53.8149 18.967C53.8149 23.9119 50.8411 27.37 46.5143 27.37C45.2022 27.3538 43.9211 26.9693 42.817 26.2602C41.7129 25.5511 40.8303 24.546 40.2699 23.3595ZM51.9508 18.9792C51.9508 15.0368 49.7607 12.5473 46.3148 12.5473C42.8689 12.5473 40.192 15.4165 40.2309 19.2201C40.2699 23.0237 42.7886 25.7225 46.2466 25.7225C49.7047 25.7225 51.9581 23.1162 51.9581 18.967L51.9508 18.9792Z" fill="#2C4A34"/>
<path d="M65.5278 19.1062C65.5278 14.5068 69.02 10.876 73.8019 10.876C78.5837 10.876 82.0345 14.5068 82.0345 19.1062C82.0345 23.7056 78.5399 27.3802 73.8019 27.3802C69.0638 27.3802 65.5278 23.7056 65.5278 19.1062ZM80.1558 19.1062C80.1558 15.4389 77.423 12.5356 73.7921 12.5356C70.1613 12.5356 67.3943 15.4389 67.3943 19.1062C67.3943 22.7735 70.1954 25.7108 73.7921 25.7108C77.3889 25.7108 80.1558 22.8149 80.1558 19.1062Z" fill="#2C4A34"/>
<path d="M85.0305 24.0165L86.4274 23.082L86.5661 23.1161C87.5395 24.8804 89.0897 25.8149 91.0268 25.8149C93.1366 25.8149 94.6576 24.7077 94.6576 23.138C94.6576 21.7899 93.9275 20.9259 90.854 19.8187C86.6342 18.2637 85.5975 16.9836 85.5975 14.9078C85.5975 12.6957 87.6028 10.8633 90.6812 10.8633C93.1366 10.8633 95.1078 12.1068 95.9376 14.078L94.7209 14.9078L94.514 14.8737C93.8229 13.3528 92.3701 12.4183 90.5717 12.4183C88.6687 12.4183 87.391 13.4915 87.391 14.8737C87.391 16.1538 88.0116 16.913 91.5743 18.2637C95.2757 19.68 96.4414 20.8919 96.4414 23.104C96.4414 25.4913 94.1587 27.3578 90.9416 27.3578C88.3158 27.3699 86.1378 26.1605 85.0305 24.0165Z" fill="#2C4A34"/>
<path d="M99.2786 24.0165L100.661 23.082L100.8 23.1161C101.773 24.8804 103.323 25.8149 105.26 25.8149C107.37 25.8149 108.891 24.7077 108.891 23.138C108.891 21.7899 108.161 20.9259 105.087 19.8187C100.868 18.2637 99.831 16.9836 99.831 14.9078C99.831 12.6957 101.836 10.8633 104.915 10.8633C107.37 10.8633 109.341 12.1068 110.171 14.078L108.954 14.9078L108.745 14.8737C108.054 13.3528 106.601 12.4183 104.805 12.4183C102.902 12.4183 101.622 13.4915 101.622 14.8737C101.622 16.1538 102.245 16.913 105.808 18.2637C109.507 19.68 110.675 20.8919 110.675 23.104C110.675 25.4913 108.392 27.3578 105.177 27.3578C102.564 27.3699 100.386 26.1605 99.2786 24.0165Z" fill="#2C4A34"/>
<path d="M113.803 19.1062C113.803 14.5068 117.295 10.876 122.077 10.876C126.859 10.876 130.307 14.5068 130.307 19.1062C130.307 23.7056 126.815 27.3802 122.077 27.3802C117.339 27.3802 113.803 23.7056 113.803 19.1062ZM128.431 19.1062C128.431 15.4389 125.698 12.5356 122.067 12.5356C118.436 12.5356 115.669 15.4389 115.669 19.1062C115.669 22.7735 118.47 25.7108 122.067 25.7108C125.664 25.7108 128.431 22.8149 128.431 19.1062Z" fill="#2C4A34"/>
<path d="M159 17.2372V26.7086H157.243V18.1669C157.243 14.2586 155.824 12.5308 153.057 12.5308C150.29 12.5308 147.871 15.3999 147.871 18.9285V26.7159H146.107V18.1741C146.107 14.2659 144.691 12.5381 141.924 12.5381C139.157 12.5381 136.77 15.4072 136.77 18.9358V26.7232H135.005V11.533H136.77V14.8864C138.016 12.3264 140.089 10.876 142.476 10.876C145.243 10.876 147.008 12.3969 147.56 15.3026C148.84 12.3264 151.261 10.876 153.578 10.876C156.958 10.876 159 13.054 159 17.2372Z" fill="#2C4A34"/>
<path d="M63.8485 25.3701L63.7414 25.4139C62.5563 25.9006 61.595 25.9201 60.9672 25.4942C60.3393 25.0683 60.057 24.2774 60.057 23.0606L60.1252 1.35352H58.3633L58.2927 23.3356C58.2927 24.9953 58.7794 26.1634 59.7188 26.8107C60.3126 27.1905 61.0073 27.3821 61.7118 27.3607C62.477 27.3484 63.2333 27.1958 63.9434 26.9105L64.0067 26.8862L63.8485 25.3701Z" fill="#2C4A34"/>
</svg>
