<svg width="204" height="36" viewBox="0 0 204 36" fill="none" xmlns="http://www.w3.org/2000/svg">
<g clip-path="url(#clip0_946_6630)">
<g filter="url(#filter0_f_946_6630)">
<ellipse cx="24.2401" cy="18.616" rx="15.9475" ry="15.3986" fill="url(#paint0_radial_946_6630)" fill-opacity="0.5"/>
</g>
<path d="M28.8423 13.1962L27.5566 13.4781C27.0252 12.616 26.3566 11.986 25.6452 11.6627C25.4297 11.5637 25.2022 11.4913 24.9681 11.4472C25.1781 11.4176 25.3901 11.4037 25.6023 11.4057H25.9452C26.9995 11.4472 28.0452 12.1269 28.8423 13.1962Z" fill="url(#paint1_linear_946_6630)"/>
<path d="M30.8308 21.7843L29.3908 20.632C29.3499 20.5977 29.3022 20.5719 29.2506 20.5562C29.199 20.5405 29.1446 20.5353 29.0908 20.5408L28.7737 17.9047L28.688 17.1338L28.6451 16.7774V16.7608C28.6061 16.4402 28.5489 16.122 28.4737 15.8075C28.4394 15.6583 28.4051 15.5174 28.3623 15.3681C28.3194 15.2189 28.268 15.0449 28.2165 14.8874C28.1651 14.7299 28.0451 14.4314 27.9423 14.2159L29.3051 13.9175C29.4621 14.1996 29.6023 14.4902 29.7251 14.7879L29.8022 15.0034C29.7358 15.0386 29.6774 15.0866 29.6308 15.1443C29.5885 15.1869 29.5564 15.2378 29.5365 15.2935H29.5279C29.4751 15.4196 29.4603 15.5576 29.4851 15.6914C29.4937 15.708 29.4937 15.7246 29.5022 15.7412C29.54 15.8687 29.6179 15.9817 29.7251 16.0645L30.1794 16.4292C30.1965 16.537 30.2136 16.653 30.2222 16.7691L30.3251 17.6312L30.3679 18.0042L30.4622 18.7586L30.4279 18.742C30.3572 18.7278 30.2839 18.7327 30.2159 18.7561C30.1479 18.7795 30.0878 18.8205 30.0422 18.8746C30.007 18.9148 29.9804 18.9613 29.964 19.0114C29.9475 19.0616 29.9415 19.1144 29.9463 19.1668C29.951 19.2193 29.9665 19.2703 29.9918 19.3169C30.0171 19.3635 30.0517 19.4047 30.0936 19.4383L30.5908 19.8528L30.7793 21.3946L30.8308 21.7843Z" fill="url(#paint2_linear_946_6630)"/>
<path d="M31.6279 24.1384C31.6101 24.1772 31.5871 24.2134 31.5593 24.2462C31.4472 24.3771 31.2864 24.46 31.1115 24.4771C30.9367 24.4942 30.7619 24.444 30.6251 24.3374L29.7937 23.6908C29.5021 22.9975 29.3061 22.27 29.2108 21.5272L31.1736 23.1105C31.2974 23.464 31.4493 23.8076 31.6279 24.1384Z" fill="url(#paint3_linear_946_6630)"/>
<path d="M35.0821 26.6999C35.0821 26.6999 33.8821 26.816 33.4793 26.7745C33.2851 26.7582 33.0929 26.7249 32.905 26.675C32.0736 26.4512 31.3365 25.9539 30.7451 25.2492L30.8651 25.2658C31.0844 25.2901 31.3066 25.2671 31.5156 25.1983C31.7246 25.1294 31.9152 25.0166 32.0736 24.8679H32.0822C32.6307 25.6306 33.2993 26.1942 34.0193 26.4844C34.3552 26.6238 34.7166 26.6971 35.0821 26.6999Z" fill="url(#paint4_linear_946_6630)"/>
<path d="M11.374 14.3817L9.73693 14.3651C9.30836 13.3455 8.6398 12.3922 7.73125 11.7871L7.68839 11.7622C7.33624 11.5269 6.94891 11.3452 6.53986 11.2234C6.61359 11.1689 6.69089 11.119 6.77128 11.0742C6.83398 11.0357 6.89993 11.0024 6.96842 10.9747L7.03698 10.9498L7.07984 10.9332C7.24161 10.8903 7.41063 10.879 7.57697 10.9001C7.76409 10.9167 7.94835 10.9557 8.12554 11.0161C8.63566 11.1837 9.10725 11.4455 9.51408 11.7871L9.57407 11.8368C9.8249 12.056 10.0571 12.2944 10.2683 12.5497C10.7098 13.0591 11.0656 13.6326 11.3226 14.2491L11.374 14.3817Z" fill="url(#paint5_linear_946_6630)"/>
<path d="M11.434 19.3554L10.6626 19.9605L10.2855 16.7773C10.234 16.3877 10.2255 15.9981 10.1398 15.6168L10.0626 15.3101H11.6654L11.6912 15.4095L11.5197 15.5256L11.4597 15.5753C11.3693 15.6526 11.2957 15.7465 11.2433 15.8516C11.1908 15.9566 11.1605 16.0708 11.1541 16.1873C11.1477 16.3038 11.1654 16.4204 11.2061 16.5302C11.2468 16.6401 11.3097 16.741 11.3912 16.827C11.5474 16.998 11.726 17.1485 11.9226 17.2747L12.1369 19.0403C11.8786 19.0855 11.6366 19.1939 11.434 19.3554Z" fill="url(#paint6_linear_946_6630)"/>
<path d="M12.4112 21.3532L12.3855 21.3781L12.3512 21.4029L11.9055 21.7511L11.7941 21.8423L11.4341 22.1324L11.2284 22.2899C11.1636 22.3371 11.0912 22.3735 11.0141 22.3977C10.9884 22.2982 10.9712 22.207 10.9455 22.1075L10.8941 21.7925C10.8855 21.7594 10.8855 21.7345 10.8769 21.7013C10.8684 21.6682 10.8512 21.5107 10.8426 21.4112L10.8255 21.3117L10.7827 20.9138L10.8598 20.8558L11.9655 19.9854C12.0424 19.9221 12.1333 19.8768 12.2312 19.8528L12.3598 20.9387L12.4112 21.3532Z" fill="url(#paint7_linear_946_6630)"/>
<path d="M12.934 23.4256C12.7987 23.3912 12.6785 23.3156 12.5911 23.21C12.4887 23.0898 12.4327 22.9389 12.4327 22.7831C12.4327 22.6273 12.4887 22.4764 12.5911 22.3562C12.6809 22.7196 12.7954 23.0768 12.934 23.4256Z" fill="url(#paint8_linear_946_6630)"/>
<path d="M16.7225 26.6999L15.8225 26.7662H15.8054C15.5773 26.7852 15.3481 26.7879 15.1197 26.7745C13.3626 26.6005 11.9311 25.2078 11.2369 23.1686C11.3743 23.1311 11.5046 23.0723 11.6226 22.9945C11.6723 23.3191 11.8324 23.6184 12.0777 23.845C12.323 24.0717 12.6393 24.2129 12.9768 24.2462H13.1311L13.3197 24.2296C13.9625 25.3736 14.8539 26.2026 15.8225 26.5341C16.1109 26.6372 16.4151 26.6932 16.7225 26.6999Z" fill="url(#paint9_linear_946_6630)"/>
<path d="M35.3821 20.607L30.3679 18.0124L28.688 17.1337L26.4766 15.9898L25.9966 15.7411L25.6109 15.5421L25.9966 15.5173L26.4852 15.4841L28.3623 15.3681L29.5365 15.2935H29.528C29.4752 15.4195 29.4603 15.5575 29.4851 15.6914C29.4937 15.7079 29.4937 15.7245 29.5022 15.7411C29.54 15.8686 29.6179 15.9816 29.7251 16.0644L30.1794 16.4291L33.6422 19.2144L34.1479 19.6123L35.2193 20.4744L35.3821 20.607Z" fill="white"/>
<path d="M47.2447 19.4383C47.0842 19.7577 46.8699 20.0491 46.6104 20.3004L38.9049 20.4579L38.8449 20.8641C38.8455 20.8892 38.8426 20.9143 38.8363 20.9387L37.0449 20.9718V20.947C37.0489 20.919 37.0547 20.8914 37.0621 20.8641L37.1049 20.4911L36.4278 20.5076C36.3379 20.3691 36.225 20.2458 36.0935 20.1429L30.5308 15.6831L33.7793 15.4759L37.8678 15.393C37.9192 15.2355 37.9706 15.078 38.0306 14.9288L39.8134 14.8873C39.7534 15.0531 39.7106 15.2106 39.6677 15.3598L45.9933 15.2272C46.3558 15.4511 46.6726 15.7377 46.9276 16.0727C47.3243 16.5985 47.559 17.2222 47.6047 17.8716C47.6154 18.4141 47.492 18.9512 47.2447 19.4383Z" fill="white"/>
<path d="M35.2193 20.4828L34.1479 19.6207L30.3251 17.6395L30.3679 18.0125L35.3821 20.6071L35.2193 20.4828ZM35.2193 20.4828L34.1479 19.6207L30.3251 17.6395L30.3679 18.0125L35.3821 20.6071L35.2193 20.4828ZM35.2193 20.4828L34.1479 19.6207L30.3251 17.6395L30.3679 18.0125L35.3821 20.6071L35.2193 20.4828ZM35.2193 20.4828L34.1479 19.6207L30.3251 17.6395L30.3679 18.0125L35.3821 20.6071L35.2193 20.4828ZM35.2193 20.4828L34.1479 19.6207L30.3251 17.6395L30.3679 18.0125L35.3821 20.6071L35.2193 20.4828ZM35.2193 20.4828L34.1479 19.6207L30.3251 17.6395L28.6451 16.7608V16.7774L28.688 17.1338L30.3679 18.0125L35.3821 20.6071L35.2193 20.4828ZM35.2193 20.4828L34.1479 19.6207L30.3251 17.6395L28.6451 16.7608V16.7774L28.688 17.1338L30.3679 18.0125L35.3821 20.6071L35.2193 20.4828ZM35.2193 20.4828L34.1479 19.6207L30.3251 17.6395L28.6451 16.7608V16.7774L28.688 17.1338L30.3679 18.0125L35.3821 20.6071L35.2193 20.4828ZM35.8535 21.2537C35.8188 21.0622 35.7193 20.8873 35.5707 20.7564L35.3821 20.6071L35.2193 20.4828L34.1479 19.6207L30.3251 17.6395L28.6451 16.7608L26.9823 15.907L28.4737 15.8075L29.5022 15.7495C29.4937 15.7329 29.4937 15.7163 29.4851 15.6997C29.4603 15.5658 29.4752 15.4279 29.528 15.3018H29.5365C29.5564 15.2461 29.5886 15.1952 29.6308 15.1526C29.6775 15.0949 29.7358 15.0469 29.8022 15.0117C29.8887 14.9545 29.9892 14.9202 30.0937 14.9122L32.8707 14.7133L32.845 14.6967L32.6993 14.6138L29.7251 14.7962L28.2166 14.8957L26.4937 15.0034L26.0052 15.0366L23.6138 15.1858H23.5452L23.6652 15.2438L25.4995 16.1971L26.468 16.6945L28.7737 17.8965L30.4279 18.7503L30.4622 18.7669L30.6679 18.8746L35.6478 21.4527H35.8535C35.8614 21.3866 35.8614 21.3198 35.8535 21.2537ZM47.1933 20.889C47.0957 20.9701 46.9926 21.0449 46.8847 21.1128L46.7304 21.2123L46.679 21.2454H47.0047L47.1419 21.1211C47.5449 20.7647 47.8737 20.337 48.1104 19.8611L48.179 19.7367C47.9356 20.1821 47.6001 20.5744 47.1933 20.889ZM47.7161 15.5174C47.3554 15.0424 46.8973 14.6445 46.3705 14.3485L46.2505 14.2822H45.9248L46.5847 14.6967L46.6533 14.7464L46.8847 14.8957C47.3167 15.1726 47.6869 15.5306 47.9733 15.9484C48.0504 16.0645 48.1276 16.1888 48.1961 16.3132C48.0631 16.0335 47.9024 15.767 47.7161 15.5174ZM38.2278 14.448L38.1335 14.647L38.0306 14.9288C37.9706 15.078 37.9192 15.2355 37.8678 15.393L39.6678 15.3599C39.7106 15.2107 39.7535 15.0532 39.8135 14.8874C39.8735 14.7216 39.8906 14.6718 39.9335 14.5558L40.002 14.4066L38.2278 14.448ZM37.1049 20.4911L37.0621 20.8641C37.0547 20.8914 37.049 20.9191 37.0449 20.947V20.9719C37.0364 21.0382 37.0107 21.204 36.9678 21.4361L38.7506 21.4029C38.7849 21.2289 38.8106 21.1128 38.8192 21.0548C38.8278 20.9967 38.8278 20.9719 38.8363 20.9387C38.8426 20.9143 38.8455 20.8892 38.8449 20.8641L38.9049 20.4579L37.1049 20.4911ZM35.2193 20.4828L34.1479 19.6207L30.3251 17.6395L28.6451 16.7608V16.7774L28.688 17.1338L30.3679 18.0125L35.3821 20.6071L35.2193 20.4828ZM35.2193 20.4828L34.1479 19.6207L30.3251 17.6395L28.6451 16.7608V16.7774L28.688 17.1338L30.3679 18.0125L35.3821 20.6071L35.2193 20.4828ZM35.2193 20.4828L34.1479 19.6207L30.3251 17.6395L28.6451 16.7608V16.7774L28.688 17.1338L30.3679 18.0125L35.3821 20.6071L35.2193 20.4828ZM35.2193 20.4828L34.1479 19.6207L30.3251 17.6395L30.3679 18.0125L35.3821 20.6071L35.2193 20.4828ZM35.2193 20.4828L34.1479 19.6207L30.3251 17.6395L30.3679 18.0125L35.3821 20.6071L35.2193 20.4828ZM35.2193 20.4828L34.1479 19.6207L30.3251 17.6395L30.3679 18.0125L35.3821 20.6071L35.2193 20.4828ZM35.2193 20.4828L34.1479 19.6207L30.3251 17.6395L30.3679 18.0125L35.3821 20.6071L35.2193 20.4828Z" fill="#1F1C1D"/>
<path d="M13.8683 14.8542L13.3112 15.2521L13.2255 15.3184L12.0255 16.1722L12.0083 16.3048C12.3006 16.6221 12.7037 16.8237 13.1403 16.8711C13.5769 16.9186 14.0162 16.8084 14.374 16.5618L16.0883 15.3764L16.6968 14.9537L16.7482 14.9205L13.8683 14.8542ZM12.934 20.0683C12.869 19.9931 12.7877 19.9327 12.6959 19.8911C12.6041 19.8496 12.504 19.828 12.4026 19.8279C12.3449 19.8252 12.2872 19.8308 12.2312 19.8445C12.1333 19.8684 12.0424 19.9138 11.9655 19.9771L10.8598 20.8475L10.7827 20.9055L10.8255 21.3034L12.3512 21.3946L12.3855 21.3698L12.4112 21.3449L12.8398 21.005L12.8998 20.9553C13.0161 20.8368 13.0837 20.6813 13.09 20.518C13.0964 20.3548 13.0409 20.1949 12.934 20.0683ZM12.934 20.0683C12.869 19.9931 12.7877 19.9327 12.6959 19.8911C12.6041 19.8496 12.504 19.828 12.4026 19.8279C12.3449 19.8252 12.2872 19.8308 12.2312 19.8445C12.1333 19.8684 12.0424 19.9138 11.9655 19.9771L10.8598 20.8475L10.7827 20.9055L10.3541 21.2454C10.3389 21.2521 10.3267 21.2638 10.3198 21.2786H10.3112L10.8255 21.3117L12.3512 21.4029L12.3855 21.378L12.4112 21.3532L12.8398 21.0133L12.8998 20.9636C13.0184 20.8446 13.0875 20.6875 13.0938 20.5223C13.1002 20.3571 13.0433 20.1954 12.934 20.0683ZM26.0138 14.6469L24.8052 14.9122L23.8452 15.1277L23.6138 15.1775H23.5452L23.1338 15.2687L22.851 15.2852L22.4995 15.3018L22.6281 14.9371C22.6373 14.9086 22.6488 14.8809 22.6624 14.8542C22.6624 14.8459 22.671 14.8376 22.671 14.821H22.5767L20.8796 14.9205C20.8207 15.0503 20.7692 15.1831 20.7253 15.3184H17.5368L17.4597 15.3764L14.854 17.1753C14.4291 17.4697 13.9227 17.6342 13.4001 17.6475C12.8776 17.6608 12.363 17.5223 11.9226 17.2499C11.7261 17.1237 11.5474 16.9732 11.3912 16.8022C11.3098 16.7161 11.2468 16.6152 11.2061 16.5054C11.1654 16.3956 11.1477 16.279 11.1541 16.1625C11.1605 16.0459 11.1908 15.9318 11.2433 15.8267C11.2958 15.7217 11.3694 15.6278 11.4598 15.5505L11.5198 15.5008L11.6912 15.3847L11.8198 15.2852H10.0627C9.27412 15.2687 8.48556 15.2604 7.69701 15.2355C6.55703 15.2106 5.40848 15.1692 4.26851 15.1194C3.68276 15.3223 3.16655 15.6781 2.77711 16.1473C2.4762 16.511 2.26512 16.9363 2.15997 17.3908C2.04269 17.9354 2.08424 18.5007 2.27997 19.0238C2.48335 19.5185 2.82092 19.9509 3.2571 20.2755C5.38277 20.4496 7.54273 20.6071 9.66839 20.748L9.82267 20.5988L10.6627 19.944L11.4341 19.3388C11.7478 19.0943 12.1484 18.979 12.5494 19.0178C12.9503 19.0565 13.3194 19.2463 13.5769 19.5461C13.7471 19.7494 13.8594 19.9923 13.9026 20.2507L15.7283 18.8083C16.0411 18.5617 16.4423 18.445 16.8439 18.4839C17.2455 18.5227 17.6149 18.7139 17.8711 19.0155C18.0333 19.2101 18.1423 19.441 18.1882 19.687C18.4624 19.5261 18.7819 19.4524 19.1017 19.4761C19.4214 19.4999 19.7255 19.6201 19.971 19.8196L19.9025 20.3418L19.791 21.1211L19.7739 21.2537L19.7567 21.3532C19.7451 21.4732 19.7251 21.5923 19.6968 21.7096H19.7396L20.2625 21.7262H20.3139L21.4796 21.7594L22.3795 21.7842C22.4401 21.6975 22.4783 21.598 22.491 21.4941C22.491 21.4692 22.4995 21.4444 22.4995 21.4278C22.4995 21.4112 22.491 21.3532 22.491 21.32C22.4737 21.1999 22.42 21.0874 22.3367 20.9967C22.2811 20.927 22.2114 20.8689 22.1318 20.8262C22.0522 20.7834 21.9644 20.7568 21.8738 20.748H21.7967L21.6253 20.7646L21.6853 20.3501L21.7367 19.944C21.9513 19.9356 22.1653 19.9712 22.3647 20.0483C22.5641 20.1254 22.7444 20.2424 22.8938 20.3916L22.9795 20.4828C23.1191 20.6577 23.2211 20.8578 23.2795 21.0713C23.2951 21.1425 23.3066 21.2144 23.3138 21.2869V21.3034H23.3224L25.928 19.4051L25.9795 16.4292C25.988 16.1888 25.9881 15.9567 25.9966 15.7163V15.4925C26.0052 15.3267 26.0052 15.1609 26.0052 15.0034C26.0052 14.8459 26.0138 14.7464 26.0138 14.6221V14.6469ZM22.3367 21.0299C22.2811 20.9601 22.2114 20.9021 22.1318 20.8593C22.0522 20.8166 21.9644 20.79 21.8738 20.7812H21.7967L21.6253 20.7978L21.5567 21.3283L22.491 21.3532C22.4737 21.233 22.42 21.1205 22.3367 21.0299ZM12.934 20.0683C12.869 19.9931 12.7877 19.9327 12.6959 19.8911C12.6041 19.8496 12.504 19.828 12.4026 19.8279C12.3449 19.8252 12.2872 19.8308 12.2312 19.8445C12.1333 19.8684 12.0424 19.9138 11.9655 19.9771L10.8598 20.8475L10.7827 20.9055L10.8255 21.3034L12.3512 21.3946L12.3855 21.3698L12.4112 21.3449L12.8398 21.005L12.8998 20.9553C13.0161 20.8368 13.0837 20.6813 13.09 20.518C13.0964 20.3548 13.0409 20.1949 12.934 20.0683ZM17.2282 19.5461C17.171 19.4761 17.0997 19.418 17.0187 19.3752C16.9377 19.3325 16.8486 19.306 16.7568 19.2974H16.6882C16.5288 19.2951 16.3738 19.348 16.2511 19.4466L14.2369 21.0299L13.7226 21.4444L13.6797 21.4775L15.7454 21.577L15.7883 21.5438L16.3111 21.1294L17.1254 20.4828C17.1961 20.428 17.2548 20.3603 17.2983 20.2835C17.3418 20.2066 17.3691 20.1222 17.3786 20.0351C17.3882 19.9481 17.3798 19.86 17.354 19.776C17.3282 19.6921 17.2855 19.6139 17.2282 19.5461ZM19.5168 20.5325C19.4517 20.4574 19.3704 20.3969 19.2786 20.3554C19.1868 20.3138 19.0867 20.2922 18.9853 20.2921C18.8248 20.2922 18.6696 20.3481 18.5482 20.4496L17.5968 21.1957L17.0654 21.6184L17.0311 21.6433L19.0625 21.7262H19.131L19.4225 21.4941C19.4872 21.4485 19.54 21.3889 19.5768 21.32L19.6025 21.2786C19.6666 21.1601 19.6928 21.0258 19.6775 20.8929C19.6622 20.76 19.6062 20.6345 19.5168 20.5325Z" fill="white"/>
<path d="M20.2881 14.5061L20.4338 14.5558H17.4082C17.3222 14.5563 17.2384 14.5824 17.1682 14.6304L16.7482 14.9205L16.6968 14.9537L16.0882 15.3765L14.374 16.5619C14.0162 16.8085 13.5769 16.9186 13.1403 16.8712C12.7037 16.8238 12.3006 16.6221 12.0083 16.3049L12.0254 16.1723L13.2254 15.3184L13.3111 15.2521L13.8683 14.8542L13.9454 14.7962H13.954L14.5111 14.3983L14.5882 14.3403L16.0454 13.2958C16.1251 13.2402 16.2213 13.2111 16.3196 13.2129C16.3576 13.2094 16.3959 13.2151 16.4311 13.2295L18.6939 13.9755L19.6453 14.2988H19.6539L20.2881 14.5061Z" fill="white"/>
<path d="M22.6624 14.8708C22.6488 14.8975 22.6373 14.9252 22.6281 14.9537H20.8796C20.948 14.7869 21.0252 14.6237 21.111 14.4646C21.1218 14.4354 21.1362 14.4076 21.1539 14.3817L21.3681 14.448L22.5767 14.8542L22.6624 14.8708Z" fill="white"/>
<path d="M35.8535 21.461C35.8336 21.6084 35.7745 21.7483 35.6821 21.8672C35.615 21.9515 35.5312 22.0222 35.4357 22.075C35.3401 22.1279 35.2347 22.1618 35.1254 22.175C35.0162 22.1881 34.9053 22.1801 34.7993 22.1514C34.6933 22.1228 34.5942 22.074 34.5078 22.0081L30.6679 18.8829L30.4622 18.7752L30.4279 18.7586C30.3573 18.7444 30.2839 18.7493 30.2159 18.7727C30.1479 18.7961 30.0878 18.8371 30.0422 18.8912C30.007 18.9314 29.9804 18.9779 29.964 19.028C29.9475 19.0782 29.9415 19.131 29.9463 19.1834C29.951 19.2359 29.9665 19.2869 29.9918 19.3335C30.0171 19.3801 30.0517 19.4213 30.0937 19.4549L30.5908 19.8694L33.3507 22.1241C33.4674 22.2367 33.5369 22.3869 33.546 22.546C33.5551 22.7052 33.5032 22.8619 33.4001 22.9862C33.2971 23.1106 33.1502 23.1937 32.9876 23.2197C32.825 23.2457 32.6583 23.2128 32.5193 23.1272L30.8308 21.7843L29.3908 20.632C29.35 20.5977 29.3022 20.5719 29.2506 20.5563C29.199 20.5406 29.1446 20.5353 29.0908 20.5408C28.9816 20.5518 28.8806 20.6021 28.808 20.6818C28.7391 20.7637 28.7059 20.8684 28.7155 20.9737C28.7251 21.0789 28.7767 21.1764 28.8594 21.2454L29.2108 21.5273L31.1736 23.1106L31.4651 23.3427C31.5834 23.4365 31.6643 23.5672 31.694 23.7124C31.7237 23.8575 31.7004 24.0082 31.6279 24.1385C31.6102 24.1772 31.5871 24.2135 31.5593 24.2463C31.4473 24.3772 31.2864 24.4601 31.1115 24.4772C30.9367 24.4942 30.7619 24.444 30.6251 24.3374L29.7937 23.6909L27.1451 21.6268C27.0599 21.5597 26.9506 21.5281 26.8413 21.539C26.732 21.5499 26.6316 21.6024 26.5623 21.6848C26.493 21.7672 26.4603 21.8729 26.4716 21.9787C26.4828 22.0844 26.5371 22.1814 26.6223 22.2485L28.028 23.3427C28.1535 23.454 28.2304 23.6073 28.2429 23.7715C28.2555 23.9357 28.2029 24.0983 28.0958 24.2263C27.9886 24.3542 27.835 24.4378 27.6664 24.46C27.4977 24.4822 27.3266 24.4413 27.188 24.3457L23.8195 21.7097L23.7166 21.635L23.4852 21.461L23.3224 21.3283H23.3138V21.3118C23.3066 21.2394 23.2951 21.1674 23.2795 21.0962C23.2211 20.8827 23.1191 20.6826 22.9795 20.5077L22.8938 20.4165L22.851 15.335V15.2936L23.1338 15.277L23.5452 15.1858H23.6138L23.8452 15.1361L24.8052 14.9205L26.0137 14.6553L26.5023 14.5475L27.9423 14.2242L29.3051 13.9258L30.4622 13.6688C30.7521 13.6033 31.057 13.651 31.3108 13.8014L32.6993 14.6138L32.845 14.6967L32.8707 14.7133L30.0937 14.9122C29.9892 14.9202 29.8887 14.9545 29.8022 15.0117C29.7358 15.0469 29.6774 15.0949 29.6308 15.1526C29.5885 15.1952 29.5564 15.2461 29.5365 15.3018H29.528C29.4752 15.4279 29.4603 15.5659 29.4851 15.6997C29.4937 15.7163 29.4937 15.7329 29.5022 15.7495C29.54 15.877 29.6179 15.99 29.7251 16.0728L30.1794 16.4375L33.6422 19.2145L34.1479 19.6124L35.2193 20.4745L35.3821 20.5989L35.5707 20.7481C35.7193 20.879 35.8187 21.054 35.8535 21.2454C35.8628 21.317 35.8628 21.3894 35.8535 21.461Z" fill="white"/>
<path d="M23.3138 21.3201V21.3366V21.3201ZM30.6251 18.8415C30.5794 18.8019 30.5228 18.776 30.4622 18.7669H30.4279L30.4622 18.7835L30.6679 18.8912L30.6251 18.8415ZM23.5281 15.1858H23.5452L23.6138 15.1692L23.5281 15.1858ZM22.8509 15.3018L22.4995 15.3184L22.6281 14.9537C22.6373 14.9252 22.6487 14.8975 22.6624 14.8708C22.6624 14.8625 22.6709 14.8542 22.6709 14.8376C22.6709 14.8211 22.7652 14.6138 22.8167 14.5061L22.4481 14.3817L21.351 14.017C21.2824 14.133 21.2138 14.2491 21.1538 14.3734C21.1362 14.3993 21.1218 14.4271 21.111 14.4563C21.0252 14.6154 20.9479 14.7786 20.8796 14.9454C20.8207 15.0752 20.7692 15.208 20.7253 15.3433H22.8852L23.1338 15.2936L22.8509 15.3018Z" fill="#1F1C1D"/>
<path d="M22.4997 21.4608C22.4997 21.4774 22.4912 21.5023 22.4912 21.5271C22.4785 21.6311 22.4403 21.7306 22.3797 21.8173L22.3454 21.867C22.3156 21.9042 22.281 21.9376 22.2426 21.9665L21.8912 22.2483L21.8483 22.2732L21.4112 22.6214L21.2055 22.7872C21.1068 23.0531 20.9923 23.3132 20.8626 23.5664L20.2626 24.0472C20.0454 24.2181 19.7695 24.3037 19.4899 24.2868C19.2104 24.2699 18.9477 24.1518 18.7541 23.956C18.8312 23.8316 18.9084 23.7073 18.9769 23.5829C18.9064 23.4769 18.8682 23.3538 18.8667 23.2277C18.8652 23.1016 18.9004 22.9777 18.9684 22.87C19.0077 22.8053 19.0602 22.7489 19.1226 22.7043L19.3455 22.5219L19.5255 22.381L19.5769 22.1986C19.6198 22.066 19.6541 21.925 19.6883 21.7841C19.6883 21.7675 19.6969 21.751 19.6969 21.7344L19.8941 21.5769L20.1598 21.3696L20.2541 21.295L20.494 21.1044L21.1026 20.6236C21.269 20.4923 21.4718 20.4116 21.6855 20.3915L21.6255 20.806L21.7969 20.7894H21.874C21.9646 20.7982 22.0524 20.8248 22.132 20.8675C22.2116 20.9103 22.2813 20.9683 22.3369 21.0381C22.4202 21.1287 22.4739 21.2412 22.4912 21.3614C22.4912 21.3862 22.4997 21.4194 22.4997 21.4608Z" fill="white"/>
<path d="M20.2538 21.7676L20.1938 21.8505L20.2967 21.7676H20.2538ZM21.6252 20.7977L21.6852 20.3832L21.6252 20.7977ZM20.4681 21.2951C20.4232 21.4587 20.3539 21.6151 20.2624 21.7593H20.2538L20.1938 21.8422L20.2967 21.7593H20.3138L20.8881 21.3034L20.4681 21.2951ZM21.6252 20.7977L21.6852 20.3832L21.6252 20.7977ZM20.4681 21.2951C20.4232 21.4587 20.3539 21.6151 20.2624 21.7593H20.2538L20.1938 21.8422L20.2967 21.7593H20.3138L20.8881 21.3034L20.4681 21.2951ZM21.6252 20.7977L21.6852 20.3832L21.6252 20.7977ZM20.4681 21.2951C20.4232 21.4587 20.3539 21.6151 20.2624 21.7593H20.2538L20.1938 21.8422L20.2967 21.7593H20.3138L20.8881 21.3034L20.4681 21.2951ZM19.071 21.7096H19.0624L18.5996 22.0743C18.5642 22.0974 18.5325 22.1253 18.5053 22.1572C18.4472 22.2063 18.3954 22.2619 18.351 22.323L18.5567 22.1572L18.6596 22.0743L19.1224 21.7096H19.131L19.4224 21.4775C19.4872 21.4318 19.54 21.3722 19.5767 21.3034L19.071 21.7096ZM19.9967 23.7405C19.873 23.8372 19.7186 23.8899 19.5596 23.8897C19.4569 23.8897 19.3556 23.8682 19.2624 23.8267C19.1691 23.7852 19.0863 23.7247 19.0196 23.6493L18.9767 23.583C18.9081 23.7073 18.831 23.8317 18.7539 23.956C18.6767 24.0804 18.5996 24.1798 18.5139 24.2876C18.7965 24.5464 19.1703 24.6916 19.5596 24.6938C19.8081 24.695 20.0529 24.6351 20.271 24.5197C20.4961 24.219 20.694 23.9001 20.8624 23.5664C20.9921 23.3133 21.1066 23.0531 21.2052 22.7872L19.9967 23.7405ZM20.8367 20.3086L20.4595 20.6071L20.091 20.9055L19.791 21.1376L19.7738 21.2702L19.7567 21.3697C19.7451 21.4897 19.725 21.6088 19.6967 21.7261C19.6967 21.7427 19.6881 21.7593 19.6881 21.7759C19.6538 21.9168 19.6196 22.0577 19.5767 22.1904L19.5253 22.3727L19.7396 22.1986L19.8253 22.1323L20.1938 21.8422L20.2967 21.7593H20.3138L20.8881 21.3034L21.3595 20.9303C21.4364 20.8671 21.5273 20.8217 21.6252 20.7977L21.6852 20.3832L21.7367 19.9771C21.408 19.993 21.093 20.1091 20.8367 20.3086ZM20.2624 21.7593H20.2538L20.1938 21.8422L20.2967 21.7593H20.2624ZM20.4681 21.2951C20.4232 21.4587 20.3539 21.6151 20.2624 21.7593H20.2538L20.1938 21.8422L20.2967 21.7593H20.3138L20.8881 21.3034L20.4681 21.2951ZM21.6252 20.7977L21.6852 20.3832L21.6252 20.7977ZM20.4681 21.2951C20.4232 21.4587 20.3539 21.6151 20.2624 21.7593H20.2538L20.1938 21.8422L20.2967 21.7593H20.3138L20.8881 21.3034L20.4681 21.2951ZM21.6252 20.7977L21.6852 20.3832L21.6252 20.7977Z" fill="#1F1C1D"/>
<path d="M19.6024 21.262C19.6547 21.16 19.6794 21.0468 19.674 20.933C19.6687 20.8192 19.6335 20.7086 19.5718 20.6116C19.5101 20.5147 19.4238 20.4344 19.3212 20.3785C19.2187 20.3226 19.103 20.2929 18.9853 20.2921C18.8247 20.2922 18.6696 20.3481 18.5482 20.4496L17.5967 21.1957L17.0653 21.6184L17.031 21.6433L16.5939 21.9915L16.4653 22.0909L16.1139 22.3728L14.9825 23.2681C14.9118 23.3228 14.853 23.3905 14.8096 23.4674C14.7661 23.5442 14.7388 23.6286 14.7292 23.7157C14.7197 23.8028 14.728 23.8908 14.7539 23.9748C14.7797 24.0587 14.8224 24.1369 14.8797 24.2048C14.9966 24.3447 15.1661 24.4342 15.3511 24.4535C15.4414 24.4627 15.5327 24.4542 15.6196 24.4286C15.7065 24.4029 15.7871 24.3607 15.8568 24.3043L18.1796 22.4723L18.351 22.3396L18.5567 22.1738L18.6596 22.0909L19.1224 21.7262H19.131L19.4224 21.4941C19.4872 21.4485 19.54 21.3889 19.5767 21.32L19.6024 21.262Z" fill="white"/>
<path d="M20.091 20.9552C20.0907 21.0649 20.0734 21.1739 20.0396 21.2785C20.0292 21.3185 20.0148 21.3573 19.9967 21.3946C19.9882 21.4029 19.9882 21.4195 19.9796 21.4277L19.9625 21.4526L19.9282 21.5024C19.9221 21.5242 19.9102 21.5442 19.8939 21.5604C19.8497 21.6241 19.7979 21.6825 19.7396 21.7345L19.6882 21.7759C19.6882 21.7593 19.6968 21.7428 19.6968 21.7262C19.7251 21.6088 19.7451 21.4897 19.7567 21.3697L19.7739 21.2703L19.791 21.1376L19.9025 20.3584C20.0144 20.5214 20.0795 20.7102 20.091 20.9055V20.9552Z" fill="white"/>
<path d="M17.1253 20.4827L16.3111 21.1293L15.7882 21.5438L15.7454 21.5769L15.3082 21.9168L15.1882 22.0246L14.8368 22.2981L13.5597 23.3012C13.4744 23.3707 13.3725 23.4186 13.2632 23.4403C13.1539 23.462 13.0407 23.4569 12.934 23.4255C12.7987 23.3911 12.6785 23.3155 12.5911 23.21C12.4887 23.0897 12.4327 22.9388 12.4327 22.7831C12.4327 22.6273 12.4887 22.4764 12.5911 22.3562C12.6181 22.3217 12.6498 22.2911 12.6854 22.265L12.7711 22.1986L13.1226 21.9168L13.2426 21.8173L13.6797 21.4775L13.7225 21.4443L14.2368 21.0298L16.2511 19.4465C16.3737 19.348 16.5287 19.295 16.6882 19.2973H16.7568C16.8927 19.3113 17.0213 19.3638 17.1265 19.4482C17.2316 19.5325 17.3087 19.6451 17.3481 19.7716C17.3875 19.8982 17.3873 20.0332 17.3477 20.1597C17.308 20.2862 17.2307 20.3986 17.1253 20.4827Z" fill="white"/>
<path d="M12.8997 20.9636L12.8397 21.0133L12.4112 21.3532L12.3854 21.3781L12.3512 21.4029L11.9054 21.7511L11.794 21.8423L11.434 22.1324L11.2283 22.2899C11.1636 22.3371 11.0912 22.3736 11.014 22.3977C10.8843 22.4359 10.7461 22.4375 10.6155 22.4022C10.4849 22.367 10.3674 22.2964 10.2769 22.1987C10.2434 22.1577 10.2147 22.1132 10.1912 22.0661C10.1325 21.9683 10.1057 21.8556 10.1141 21.7428V21.6599C10.139 21.5167 10.2077 21.3839 10.3112 21.2786H10.3198C10.3266 21.2639 10.3388 21.2521 10.3541 21.2454L10.7826 20.9056L10.8598 20.8475L11.9654 19.9771C12.0424 19.9139 12.1333 19.8685 12.2312 19.8445C12.2871 19.8308 12.3449 19.8252 12.4026 19.8279C12.5382 19.8288 12.6706 19.868 12.7834 19.9408C12.8963 20.0136 12.9846 20.1168 13.0374 20.2376C13.0903 20.3584 13.1055 20.4915 13.081 20.6205C13.0565 20.7496 12.9935 20.8688 12.8997 20.9636Z" fill="white"/>
<path d="M28.2852 9.65664C28.2851 9.57011 28.3201 9.48701 28.3825 9.42506C28.445 9.36311 28.53 9.32722 28.6194 9.32505C28.6652 9.32395 28.7107 9.33171 28.7533 9.34787C28.7959 9.36404 28.8347 9.38829 28.8674 9.41919C28.9002 9.45009 28.9262 9.48702 28.944 9.5278C28.9617 9.56858 28.9709 9.61239 28.9709 9.65664C28.971 9.70018 28.9618 9.74328 28.9439 9.78322C28.9259 9.82315 28.8996 9.85905 28.8666 9.88865C28.8335 9.91825 28.7945 9.94091 28.752 9.95519C28.7095 9.96948 28.6643 9.97508 28.6194 9.97164C28.5759 9.97274 28.5327 9.96541 28.4922 9.95008C28.4516 9.93475 28.4147 9.91172 28.3836 9.88236C28.3524 9.853 28.3276 9.8179 28.3107 9.77913C28.2938 9.74036 28.2851 9.69871 28.2852 9.65664Z" fill="white"/>
<path d="M19.9024 11.4968C19.9024 11.4103 19.9373 11.3272 19.9998 11.2653C20.0622 11.2033 20.1472 11.1674 20.2367 11.1653C20.2824 11.1642 20.3279 11.1719 20.3705 11.1881C20.4131 11.2043 20.4519 11.2285 20.4847 11.2594C20.5174 11.2903 20.5435 11.3272 20.5612 11.368C20.579 11.4088 20.5881 11.4526 20.5881 11.4968C20.5882 11.5404 20.5791 11.5835 20.5611 11.6234C20.5431 11.6634 20.5168 11.6993 20.4838 11.7289C20.4508 11.7585 20.4118 11.7811 20.3692 11.7954C20.3267 11.8097 20.2816 11.8153 20.2367 11.8118C20.1932 11.813 20.1499 11.8056 20.1094 11.7903C20.0689 11.775 20.032 11.7519 20.0008 11.7226C19.9697 11.6932 19.9449 11.6581 19.928 11.6193C19.9111 11.5806 19.9024 11.5389 19.9024 11.4968Z" fill="#DBBB6B"/>
<path d="M18.4025 7.85779C18.4025 7.73907 18.4512 7.62522 18.538 7.54127C18.6248 7.45732 18.7426 7.41016 18.8653 7.41016C18.9881 7.41016 19.1058 7.45732 19.1926 7.54127C19.2794 7.62522 19.3282 7.73907 19.3282 7.85779C19.3271 7.91585 19.3139 7.97311 19.2894 8.02612C19.2649 8.07914 19.2296 8.12682 19.1856 8.1663C19.1416 8.20579 19.0897 8.23626 19.0332 8.2559C18.9767 8.27553 18.9167 8.28392 18.8567 8.28056C18.7982 8.28166 18.74 8.27159 18.6855 8.25094C18.631 8.23029 18.5812 8.19945 18.539 8.16019C18.4969 8.12093 18.4631 8.07402 18.4397 8.02213C18.4162 7.97025 18.4036 7.9144 18.4025 7.85779Z" fill="white"/>
<path d="M22.8338 24.843C22.8248 24.7797 22.83 24.7152 22.8489 24.654C22.8679 24.5928 22.9001 24.5361 22.9436 24.488C22.987 24.4398 23.0406 24.4012 23.1008 24.3747C23.161 24.3483 23.2263 24.3346 23.2924 24.3346C23.3585 24.3346 23.4238 24.3483 23.484 24.3747C23.5441 24.4012 23.5977 24.4398 23.6412 24.488C23.6846 24.5361 23.7169 24.5928 23.7358 24.654C23.7548 24.7152 23.7599 24.7797 23.7509 24.843C23.7357 24.9502 23.6809 25.0484 23.5966 25.1196C23.5123 25.1907 23.4042 25.2299 23.2924 25.2299C23.1805 25.2299 23.0724 25.1907 22.9881 25.1196C22.9038 25.0484 22.849 24.9502 22.8338 24.843Z" fill="#DBBB6B"/>
<path d="M34.0793 9.63171C34.1136 9.63171 34.1221 9.68145 34.1221 9.68145C34.1221 9.68145 34.1307 9.71461 34.1307 9.73118C34.2054 9.9962 34.3509 10.2376 34.5524 10.4311C34.754 10.6246 35.0047 10.7634 35.2793 10.8337L35.3307 10.8503C35.3307 10.8503 35.3821 10.8586 35.3821 10.8917C35.3821 10.9249 35.3307 10.9332 35.3307 10.9332L35.2793 10.9497C35.0047 11.02 34.754 11.1589 34.5524 11.3524C34.3509 11.5459 34.2054 11.7872 34.1307 12.0523C34.1307 12.0688 34.1221 12.0854 34.1221 12.102C34.1221 12.1186 34.1136 12.1517 34.0793 12.1517C34.045 12.1517 34.0364 12.102 34.0364 12.102C34.0364 12.102 34.0279 12.0688 34.0193 12.0523C33.9454 11.7869 33.8002 11.5451 33.5985 11.3515C33.3968 11.1578 33.1457 11.0192 32.8707 10.9497L32.8279 10.9332C32.8279 10.9332 32.7679 10.9249 32.7679 10.8917C32.7679 10.8586 32.8279 10.8503 32.8279 10.8503L32.8707 10.8337C33.1457 10.7642 33.3968 10.6256 33.5985 10.432C33.8002 10.2384 33.9454 9.99659 34.0193 9.73118C34.0279 9.71461 34.0279 9.69803 34.0364 9.68145C34.045 9.66487 34.045 9.63171 34.0793 9.63171Z" fill="#DBBB6B"/>
<path d="M24.968 4.85693C25.0109 4.85693 25.028 4.92325 25.028 4.92325C25.0298 4.94348 25.0356 4.96318 25.0452 4.98128C25.1389 5.32226 25.3237 5.63345 25.5809 5.88367C25.8381 6.1339 26.1588 6.31439 26.5108 6.40708L26.5794 6.42366C26.5794 6.42366 26.648 6.43195 26.648 6.47339C26.648 6.51484 26.5794 6.53142 26.5794 6.53142L26.5108 6.548C26.1595 6.63921 25.8391 6.81819 25.5818 7.067C25.3245 7.3158 25.1395 7.62567 25.0452 7.96551C25.0365 7.98394 25.0308 8.00349 25.028 8.02354C25.028 8.02354 25.0109 8.09814 24.968 8.09814C24.9252 8.09814 24.9166 8.02354 24.9166 8.02354C24.9097 8.00452 24.904 7.98515 24.8995 7.96551C24.8036 7.62506 24.617 7.31492 24.3583 7.06615C24.0995 6.81738 23.7778 6.6387 23.4252 6.548L23.3652 6.53142C23.3652 6.53142 23.2966 6.51484 23.2966 6.47339C23.2966 6.43195 23.3652 6.42366 23.3652 6.42366L23.4252 6.40708C23.778 6.31413 24.0996 6.13369 24.3582 5.88362C24.6168 5.63354 24.8033 5.3225 24.8995 4.98128C24.908 4.9647 24.908 4.93983 24.9166 4.92325C24.9252 4.90667 24.9252 4.85693 24.968 4.85693Z" fill="white"/>
<path d="M23.4424 28.192C23.4852 28.192 23.5024 28.2666 23.5024 28.2666C23.5051 28.2867 23.5109 28.3062 23.5195 28.3246C23.6138 28.6645 23.7989 28.9744 24.0562 29.2232C24.3134 29.472 24.6338 29.6509 24.9852 29.7422L25.0538 29.7587C25.0538 29.7587 25.1224 29.7753 25.1224 29.8168C25.1224 29.8582 25.0538 29.8665 25.0538 29.8665L24.9852 29.8831C24.6332 29.9758 24.3125 30.1563 24.0553 30.4065C23.7981 30.6567 23.6133 30.9679 23.5195 31.3089C23.51 31.327 23.5042 31.3467 23.5024 31.3669C23.5024 31.3669 23.4852 31.4332 23.4424 31.4332C23.3995 31.4332 23.391 31.3669 23.391 31.3669C23.391 31.3669 23.3824 31.3255 23.3738 31.3089C23.2777 30.9677 23.0912 30.6566 22.8326 30.4065C22.574 30.1565 22.2524 29.976 21.8996 29.8831L21.8396 29.8665C21.8396 29.8665 21.771 29.8582 21.771 29.8168C21.771 29.7753 21.8396 29.7587 21.8396 29.7587L21.8996 29.7422C22.2521 29.6515 22.5739 29.4728 22.8326 29.224C23.0914 28.9752 23.278 28.6651 23.3738 28.3246C23.3784 28.305 23.3841 28.2856 23.391 28.2666C23.391 28.2666 23.3995 28.192 23.4424 28.192Z" fill="#DBBB6B"/>
<path d="M14.7254 9.32507C14.7597 9.32507 14.7683 9.37481 14.7683 9.37481C14.7703 9.38878 14.7731 9.40262 14.7768 9.41626C14.8488 9.67675 14.9904 9.91429 15.1876 10.1049C15.3847 10.2956 15.6303 10.4326 15.8997 10.5022H15.9425C15.9425 10.5022 16.0025 10.5105 16.0025 10.5436C16.0025 10.5768 15.9425 10.5851 15.9425 10.5851L15.8997 10.6017C15.6314 10.6705 15.3864 10.8063 15.1894 10.9954C14.9923 11.1845 14.8501 11.4203 14.7768 11.6793C14.7768 11.6959 14.7683 11.7125 14.7683 11.729C14.7683 11.7456 14.7597 11.7788 14.7254 11.7788C14.6911 11.7788 14.6826 11.729 14.6826 11.729C14.6826 11.729 14.674 11.6959 14.674 11.6793C14.6007 11.4203 14.4585 11.1845 14.2614 10.9954C14.0644 10.8063 13.8195 10.6705 13.5512 10.6017L13.5083 10.5851C13.5083 10.5851 13.4483 10.5768 13.4483 10.5436C13.4483 10.5105 13.5083 10.5022 13.5083 10.5022H13.5512C13.8205 10.4326 14.0661 10.2956 14.2633 10.1049C14.4604 9.91429 14.6021 9.67675 14.674 9.41626C14.6777 9.40262 14.6806 9.38878 14.6826 9.37481C14.6826 9.37481 14.6911 9.32507 14.7254 9.32507Z" fill="#DBBB6B"/>
<path d="M27.3508 26.5756C27.3765 26.5756 27.3766 26.617 27.3766 26.617C27.3766 26.617 27.3851 26.6336 27.3851 26.6502C27.4402 26.839 27.545 27.0108 27.6892 27.1488C27.8334 27.2868 28.0121 27.3863 28.208 27.4377L28.2422 27.4543C28.2422 27.4543 28.2851 27.4542 28.2851 27.4791C28.2851 27.504 28.2422 27.5123 28.2422 27.5123H28.208C28.0111 27.5643 27.8317 27.6651 27.6874 27.8047C27.5432 27.9442 27.439 28.1177 27.3851 28.3081C27.3853 28.3197 27.3824 28.3311 27.3766 28.3412C27.3766 28.3412 27.3765 28.3744 27.3508 28.3744C27.3251 28.3744 27.3165 28.3412 27.3165 28.3412C27.3165 28.3412 27.308 28.3164 27.308 28.3081C27.2574 28.1162 27.1542 27.941 27.0095 27.801C26.8647 27.6609 26.6836 27.5612 26.4851 27.5123H26.4509C26.4509 27.5123 26.4166 27.504 26.4166 27.4791C26.4166 27.4542 26.4509 27.4543 26.4509 27.4543L26.4851 27.4377C26.6821 27.3886 26.8621 27.2899 27.0066 27.1515C27.1512 27.0131 27.2552 26.8401 27.308 26.6502C27.308 26.6336 27.3165 26.6253 27.3165 26.617C27.3165 26.6087 27.3251 26.5756 27.3508 26.5756Z" fill="white"/>
<path d="M26.3223 11.4637C26.0894 11.5048 25.8623 11.5715 25.6452 11.6627C24.5223 12.0937 23.5366 13.0305 22.8852 14.3568L22.8166 14.506C22.7652 14.6138 22.7138 14.7215 22.6709 14.8376C22.6281 14.9536 22.6624 14.8624 22.6624 14.8707C22.6487 14.8975 22.6373 14.9252 22.6281 14.9536L22.4995 15.3184C22.4995 15.3349 22.4909 15.3432 22.4909 15.3515C22.3452 15.8087 22.242 16.2775 22.1824 16.7525L21.7367 19.9771L21.6852 20.3833L21.6252 20.7977L21.5567 21.3283V21.3697C21.5395 21.5106 21.5138 21.6516 21.4881 21.7925C21.4624 21.9334 21.4195 22.1075 21.3767 22.265C21.3338 22.4225 21.2738 22.6132 21.2138 22.7872C21.1151 23.0531 21.0007 23.3133 20.871 23.5665C20.7026 23.9001 20.5047 24.219 20.2796 24.5197C19.3539 25.7632 18.0425 26.5673 16.7053 26.7165C16.4396 26.7413 16.1139 26.7579 15.8311 26.7662H15.8139C15.4368 26.7828 15.1282 26.7745 15.1282 26.7745C15.3715 26.7254 15.6076 26.6475 15.8311 26.5424C16.2563 26.3586 16.6565 26.1247 17.0225 25.8461C17.5963 25.398 18.1013 24.8732 18.5224 24.2876C18.6082 24.1799 18.6853 24.0638 18.7624 23.9561C18.8396 23.8483 18.9167 23.7074 18.9853 23.583C19.1942 23.2232 19.3692 22.8458 19.5081 22.4557L19.5339 22.381L19.5853 22.1987C19.6281 22.066 19.6624 21.9251 19.6967 21.7842C19.6967 21.7676 19.7053 21.751 19.7053 21.7345C19.7336 21.6171 19.7536 21.498 19.7653 21.378L19.7824 21.2785L19.7996 21.1459L19.911 20.3667L19.9796 19.8444L20.3996 16.7607C20.4568 16.3099 20.5601 15.8656 20.7081 15.4344L20.7338 15.3598C20.7777 15.2246 20.8292 15.0917 20.8881 14.9619C20.9565 14.7951 21.0337 14.6319 21.1195 14.4728C21.1304 14.4436 21.1448 14.4158 21.1624 14.3899C21.2224 14.2656 21.291 14.1495 21.3595 14.0335C22.2938 12.5082 23.7509 11.4886 25.2509 11.4223H25.6109C25.8487 11.4214 26.0863 11.4352 26.3223 11.4637Z" fill="#DBBB6B"/>
<path d="M28.5848 1.8395C27.4873 1.13096 26.1974 0.752808 24.8778 0.752808C23.5582 0.752808 22.2682 1.13096 21.1707 1.8395L9.0424 9.61509C9.41954 9.7643 9.83095 9.95496 10.2509 10.1705L21.805 2.76793C22.4846 2.327 23.2572 2.03797 24.0667 1.92183C24.8761 1.80569 25.7022 1.86535 26.4849 2.09648C27.006 2.24682 27.5002 2.47324 27.9506 2.76793L39.736 10.2534C40.0452 9.99012 40.3845 9.76205 40.7475 9.57364L28.5848 1.8395ZM47.5187 13.9754L44.3474 11.9444L43.5502 11.4305H43.5417L43.036 11.0989L42.9845 11.074L42.6588 11.1984C42.3682 11.3293 42.09 11.4846 41.8274 11.6626L42.0588 11.8118L42.8474 12.3175L45.4359 13.9754L45.9245 14.2904L46.5845 14.7049L46.653 14.7546L46.8845 14.9038C47.3165 15.1808 47.6866 15.5388 47.973 15.9566C48.0502 16.0726 48.1273 16.197 48.1959 16.3213C48.5922 17.0698 48.7102 17.9274 48.5301 18.7502C48.4609 19.0905 48.3426 19.4198 48.1787 19.7283C47.9363 20.1767 47.6007 20.5718 47.193 20.8888C47.0954 20.97 46.9923 21.0448 46.8845 21.1127L46.7302 21.2121L46.6788 21.2453L45.6073 21.9333L27.9506 33.2486C27.0395 33.8324 25.9707 34.1438 24.8778 34.1438C23.7848 34.1438 22.7161 33.8324 21.805 33.2486L4.45678 22.124L3.23109 21.3365L3.05967 21.2287H3.0511L2.8711 21.1127C2.43974 20.8377 2.07201 20.4792 1.79113 20.0599C1.37584 19.4567 1.15212 18.7491 1.14755 18.0244C1.14298 17.2997 1.35776 16.5895 1.76541 15.9814H1.77398C2.05782 15.552 2.43156 15.1849 2.8711 14.9038L4.01965 14.166L4.07108 14.1412L5.05677 13.5029L7.62815 11.8533L7.731 11.7869H9.51382C8.93955 11.2813 7.9967 10.7176 7.55957 10.5518L2.23683 13.9754C1.73535 14.2989 1.29715 14.7059 0.942572 15.1774L0.831141 15.3432C0.465505 15.8692 0.212645 16.4608 0.0875079 17.0831C-0.0376296 17.7053 -0.0325041 18.3454 0.102585 18.9657C0.288359 19.8692 0.740892 20.7013 1.40542 21.3614C1.65475 21.6131 1.9338 21.8357 2.23683 22.0245L2.43397 22.1489L21.1707 34.1687C22.2703 34.872 23.5595 35.2471 24.8778 35.2471C26.1961 35.2471 27.4853 34.872 28.5848 34.1687L47.4845 22.0494L47.5187 22.0245C47.8414 21.8186 48.1377 21.5765 48.4016 21.3033C48.599 21.1093 48.7743 20.8953 48.9244 20.665C49.0443 20.4921 49.1531 20.3121 49.2501 20.1262L49.4044 19.7863C49.8272 18.7555 49.8705 17.6155 49.5272 16.5574C49.1838 15.4994 48.4747 14.5877 47.5187 13.9754Z" fill="#DBBB6B"/>
<path d="M43.0277 11.099L42.7791 11.1653L42.6591 11.1984L42.9848 11.0741L43.0277 11.099Z" fill="#1F1C1D"/>
<path d="M43.5591 11.4306H43.5419L43.3877 11.4057C42.882 11.3477 42.4363 11.5466 42.0591 11.8036C41.7801 11.9996 41.5217 12.2217 41.2877 12.4668C40.922 12.8393 40.6053 13.2542 40.3449 13.7019C40.2249 13.9091 40.122 14.1247 40.0277 14.3319L40.002 14.3982L39.9335 14.5474C39.8906 14.6635 39.8477 14.7713 39.8135 14.879C39.7792 14.9868 39.7106 15.2023 39.6677 15.3515C39.5845 15.6428 39.5215 15.9391 39.4792 16.2385L38.922 20.2755L38.9049 20.4413L38.8449 20.8475C38.8455 20.8726 38.8426 20.8977 38.8363 20.9221C38.8278 20.9552 38.8278 20.9967 38.8192 21.0381C38.8106 21.0796 38.7849 21.2122 38.7506 21.3863C38.5106 22.5468 37.5935 26.0036 35.0907 26.7165C34.6707 26.8325 33.9422 26.9569 32.905 26.6584C33.2845 26.6522 33.6606 26.5879 34.0193 26.4678C34.1834 26.4145 34.3413 26.3451 34.4907 26.2605C35.6564 25.6305 36.0935 24.4203 36.4707 23.3758C36.6843 22.7359 36.8504 22.0822 36.9678 21.4195C37.0107 21.1874 37.0364 21.0216 37.0449 20.9552V20.9304C37.049 20.9024 37.0547 20.8748 37.0621 20.8475L37.1049 20.4745V20.4496L37.1392 20.1677L37.6792 16.2302C37.7177 15.9418 37.7779 15.6564 37.8592 15.3764C37.9106 15.2189 37.9621 15.0614 38.0221 14.9122L38.1249 14.6303L38.2192 14.4314C38.2253 14.4071 38.237 14.3844 38.2535 14.3651C38.3397 14.1679 38.4399 13.9768 38.5535 13.7931C39.1878 12.7072 40.0792 11.7539 41.0306 11.1321C41.2944 10.9584 41.5724 10.806 41.862 10.6762C41.9704 10.6276 42.0821 10.5861 42.1963 10.5519L42.2391 10.5767L43.5591 11.4306Z" fill="#DBBB6B"/>
</g>
<path d="M61.9603 22.6471C61.2458 22.6471 60.6028 22.5055 60.0312 22.2225C59.4596 21.9311 59.0099 21.4941 58.6821 20.9114C58.3543 20.3287 58.1903 19.6003 58.1903 18.7262V14.1935H60.1069V19.1008C60.1069 19.6419 60.1909 20.0914 60.359 20.4494C60.5271 20.799 60.7625 21.0654 61.0651 21.2485C61.3761 21.4233 61.7334 21.5108 62.1369 21.5108C62.3638 21.5108 62.5655 21.4858 62.7421 21.4358C62.9186 21.3776 63.0825 21.3026 63.2338 21.2111C63.4439 21.0196 63.6037 20.7241 63.7129 20.3245C63.8222 19.9249 63.8768 19.4379 63.8768 18.8636V14.1935H65.2386V18.7761C65.2386 19.4837 65.1545 20.0873 64.9864 20.5867C64.8267 21.0862 64.5997 21.4858 64.3055 21.7855C64.0197 22.0851 63.6751 22.3016 63.2716 22.4348C62.8766 22.5763 62.4395 22.6471 61.9603 22.6471ZM58.9595 15.08L57.2195 14.8303L57.2321 14.1935H58.9973L58.9595 15.08ZM59.9303 15.1799L59.9177 14.1935H61.1029L61.1786 14.5931C60.9937 14.7013 60.7961 14.8053 60.586 14.9052C60.3758 14.9968 60.1573 15.0884 59.9303 15.1799ZM64.5451 15.08L62.8051 14.8303L62.8177 14.1935H64.5829L64.5451 15.08ZM65.0621 15.1799L65.0494 14.1935H66.2347L66.3103 14.5931C66.1254 14.7013 65.9278 14.8053 65.7177 14.9052C65.5076 14.9968 65.289 15.0884 65.0621 15.1799Z" fill="white"/>
<path d="M73.8823 22.5597L69.0658 15.2424L69.091 14.1935H70.6293L75.244 21.3359L75.1179 22.1726L73.8823 22.5597ZM67.7041 22.4098L67.6284 22.0102C67.8133 21.8937 68.0109 21.7896 68.221 21.6981C68.4396 21.5982 68.6581 21.5066 68.8767 21.4233L68.8893 22.4098H67.7041ZM69.4062 22.4098L69.4441 21.5232L71.184 21.773L71.1714 22.4098H69.4062ZM68.7001 22.4098V14.1935H70.6293L69.7467 15.3298L70.0745 18.0519V22.4098H68.7001ZM69.4567 15.08L67.8175 14.8303L67.8301 14.1935H69.4945L69.4567 15.08ZM73.8823 22.5597L74.7145 21.8354L74.3362 18.6513V14.1935H75.7105L75.6601 22.4098L73.8823 22.5597ZM74.8405 15.08L73.1006 14.8303L73.1132 14.1935H74.8784L74.8405 15.08ZM75.4836 15.1799L75.471 14.1935H76.6562L76.7318 14.5931C76.5469 14.7013 76.3494 14.8053 76.1392 14.9052C75.9291 14.9968 75.7105 15.0884 75.4836 15.1799Z" fill="white"/>
<path d="M80.7903 18.4889V17.7148H81.7234C82.1605 17.7148 82.5051 17.6523 82.7573 17.5275C83.0179 17.3943 83.207 17.2278 83.3247 17.028C83.4508 16.8282 83.5138 16.6201 83.5138 16.4036C83.5138 16.1123 83.4214 15.8334 83.2364 15.567C83.0515 15.3006 82.8119 15.1342 82.5177 15.0676L81.0299 15.2673L78.3443 14.1935C78.6301 14.1768 78.9453 14.1643 79.2899 14.156C79.6346 14.1394 79.9834 14.1269 80.3364 14.1186C80.6895 14.1102 81.0341 14.1061 81.3703 14.1061C81.7066 14.0978 82.0092 14.0936 82.2782 14.0936C83.0095 14.0936 83.6105 14.1976 84.0812 14.4058C84.5519 14.6055 84.8966 14.8678 85.1151 15.1924C85.3421 15.5171 85.4555 15.8542 85.4555 16.2039C85.4555 16.4869 85.3841 16.7699 85.2412 17.053C85.1067 17.336 84.8924 17.5774 84.5982 17.7772C84.3124 17.9687 83.9383 18.0769 83.476 18.1019L81.8243 18.3891L80.7903 18.4889ZM78.2308 22.4098L78.1551 22.0102C78.3401 21.8937 78.5376 21.7896 78.7477 21.6981C78.9663 21.5982 79.1848 21.5066 79.4034 21.4233L79.416 22.4098H78.2308ZM79.2269 22.4098V14.206H81.1434V22.4098H79.2269ZM80.8408 22.4098L80.8786 21.3235L82.1521 21.4483C82.5387 21.4816 82.854 21.4358 83.0977 21.311C83.3499 21.1861 83.5348 21.0154 83.6525 20.799C83.7702 20.5742 83.829 20.3453 83.829 20.1122C83.829 19.8625 83.766 19.6169 83.6399 19.3755C83.5138 19.1341 83.3247 18.9343 83.0725 18.7761C82.8287 18.618 82.5303 18.5389 82.1773 18.5389H80.8786L81.093 18.2142L82.7573 18.0144C83.4382 17.9562 84.0056 18.0228 84.4595 18.2142C84.9218 18.4057 85.2706 18.6721 85.506 19.0134C85.7413 19.3547 85.859 19.7293 85.859 20.1372C85.859 20.5201 85.7413 20.8864 85.506 21.236C85.2706 21.5774 84.8966 21.8604 84.3838 22.0852C83.8795 22.3016 83.2112 22.4098 82.379 22.4098H80.8408ZM79.7564 15.0051L78.3317 14.8303L78.3443 14.1935H79.7564V15.0051Z" fill="white"/>
<path d="M90.196 19.2382L90.133 18.0644C90.3599 18.1393 90.5827 18.1934 90.8012 18.2267C91.0282 18.26 91.2299 18.2767 91.4064 18.2767C91.7258 18.2767 91.9948 18.235 92.2134 18.1518C92.4319 18.0602 92.6042 17.9395 92.7303 17.7897C92.8564 17.6315 92.9489 17.4567 93.0077 17.2652C93.0666 17.0738 93.096 16.874 93.096 16.6659C93.096 16.3412 93.0329 16.0374 92.9069 15.7543C92.7892 15.463 92.6 15.2341 92.3395 15.0676L90.4356 15.2673L87.7499 14.1935L91.7721 14.0936C92.4782 14.0936 93.075 14.2143 93.5625 14.4557C94.05 14.6888 94.4241 14.9968 94.6847 15.3797C94.9453 15.7627 95.0755 16.1789 95.0755 16.6284C95.0755 17.0696 94.9495 17.49 94.6973 17.8896C94.4451 18.2808 94.0879 18.6013 93.6255 18.8511C93.1632 19.1008 92.6169 19.2257 91.9864 19.2257L90.196 19.2382ZM87.6617 22.4098L87.586 22.0102C87.7709 21.8937 87.9685 21.7896 88.1786 21.6981C88.3972 21.5982 88.6157 21.5066 88.8343 21.4233L88.8469 22.4098H87.6617ZM89.9438 22.4098L89.9817 21.5232L91.7216 21.773L91.709 22.4098H89.9438ZM88.6577 22.4098V14.1935H90.5743V22.4098H88.6577ZM94.0921 22.4098L94.1299 21.5482L95.8699 21.773L95.8573 22.4098H94.0921ZM89.1621 15.0051L87.7373 14.8303L87.7499 14.1935H89.1621V15.0051ZM93.3355 22.4098L91.356 18.7387L93.1716 18.6263L95.5295 22.4098H93.3355Z" fill="white"/>
<path d="M97.2772 22.4098L97.2016 22.0102C97.3865 21.8937 97.584 21.7896 97.7942 21.6981C98.0127 21.5982 98.2313 21.5066 98.4498 21.4233L98.4624 22.4098H97.2772ZM103.872 22.4098L102.27 22.1101L102.964 19.85L104.023 19.9249C104.031 20.158 104.027 20.4286 104.01 20.7366C104.002 21.0363 103.985 21.3359 103.96 21.6356C103.935 21.927 103.905 22.185 103.872 22.4098ZM98.7777 15.0051L97.3529 14.8303L97.3655 14.1935H98.7777V15.0051ZM102.674 16.566L102.321 14.5306L103.935 14.1935C103.943 14.3516 103.943 14.5681 103.935 14.8428C103.926 15.1092 103.905 15.3964 103.872 15.7044C103.838 16.0041 103.792 16.2913 103.733 16.566H102.674ZM98.2733 22.4098V14.1935H100.19V22.4098H98.2733ZM102.913 18.901L99.8872 18.7761V17.8771L102.913 17.6398V18.901ZM103.745 15.4172L99.7737 15.1425L98.8281 14.1935H103.935L103.745 15.4172ZM98.8659 22.4098L99.8116 21.3984L103.758 21.1362L103.872 22.4098H98.8659Z" fill="white"/>
<path d="M105.847 22.4098L109.15 14.3933L110.197 14.668L107.221 22.4098H105.847ZM111.962 22.4098L108.848 14.3433L110.499 13.8938L113.992 22.4098H111.962ZM107.725 20.1372V19.1882H111.659V20.1372H107.725ZM105.242 22.4098L105.166 22.0102C105.351 21.8937 105.548 21.7896 105.759 21.6981C105.977 21.5982 106.196 21.5066 106.414 21.4233L106.427 22.4098H105.242ZM106.919 22.4098L106.956 21.5232L108.696 21.773L108.684 22.4098H106.919ZM110.6 22.4098L110.525 22.0102C110.709 21.8937 110.907 21.7896 111.117 21.6981C111.327 21.5982 111.546 21.5066 111.773 21.4233L112.176 22.4098H110.6ZM112.807 22.4098L112.845 21.5232L114.585 21.773L114.572 22.4098H112.807Z" fill="white"/>
<path d="M115.511 22.4098L115.435 22.0102C115.62 21.8937 115.818 21.7896 116.028 21.6981C116.246 21.5982 116.465 21.5066 116.684 21.4233L116.696 22.4098H115.511ZM117.718 22.4098L117.755 21.5232L119.495 21.773L119.483 22.4098H117.718ZM122.635 22.4098V21.5357L124.06 21.7605L124.047 22.4098H122.635ZM118.247 15.1799L118.234 14.1935H119.42L119.495 14.5931C119.31 14.7013 119.113 14.8053 118.903 14.9052C118.693 14.9968 118.474 15.0884 118.247 15.1799ZM122.118 15.08L120.378 14.8303L120.391 14.1935H122.156L122.118 15.08ZM122.206 15.1799L122.194 14.1935H123.53L123.606 14.5931C123.421 14.7013 123.198 14.8053 122.937 14.9052C122.677 15.0051 122.433 15.0967 122.206 15.1799ZM116.507 22.4098V14.1935H118.424V22.4098H116.507ZM117.995 19.8375L117.781 18.6013L121.929 14.1935H122.937L122.887 14.7054L117.995 19.8375ZM121.525 22.4098L118.814 18.6513L120.126 17.4401L123.871 22.4098H121.525ZM117.276 15.08L115.536 14.8303L115.549 14.1935H117.314L117.276 15.08Z" fill="white"/>
<path d="M125.226 22.4098L128.529 14.3933L129.576 14.668L126.6 22.4098H125.226ZM131.341 22.4098L128.227 14.3433L129.878 13.8938L133.371 22.4098H131.341ZM127.104 20.1372V19.1882H131.038V20.1372H127.104ZM124.62 22.4098L124.545 22.0102C124.73 21.8937 124.927 21.7896 125.137 21.6981C125.356 21.5982 125.574 21.5066 125.793 21.4233L125.806 22.4098H124.62ZM126.297 22.4098L126.335 21.5232L128.075 21.773L128.063 22.4098H126.297ZM129.979 22.4098L129.903 22.0102C130.088 21.8937 130.286 21.7896 130.496 21.6981C130.706 21.5982 130.925 21.5066 131.152 21.4233L131.555 22.4098H129.979ZM132.186 22.4098L132.223 21.5232L133.963 21.773L133.951 22.4098H132.186Z" fill="white"/>
<path d="M137.449 18.4889V17.7148H138.382C138.82 17.7148 139.164 17.6523 139.416 17.5275C139.677 17.3943 139.866 17.2278 139.984 17.028C140.11 16.8282 140.173 16.6201 140.173 16.4036C140.173 16.1123 140.08 15.8334 139.896 15.567C139.711 15.3006 139.471 15.1342 139.177 15.0676L137.689 15.2673L135.003 14.1935C135.289 14.1768 135.604 14.1643 135.949 14.156C136.294 14.1394 136.642 14.1269 136.996 14.1186C137.349 14.1102 137.693 14.1061 138.029 14.1061C138.366 14.0978 138.668 14.0936 138.937 14.0936C139.669 14.0936 140.27 14.1976 140.74 14.4058C141.211 14.6055 141.556 14.8678 141.774 15.1924C142.001 15.5171 142.115 15.8542 142.115 16.2039C142.115 16.4869 142.043 16.7699 141.9 17.053C141.766 17.336 141.551 17.5774 141.257 17.7772C140.971 17.9687 140.597 18.0769 140.135 18.1019L138.483 18.3891L137.449 18.4889ZM134.89 22.4098L134.814 22.0102C134.999 21.8937 135.197 21.7896 135.407 21.6981C135.625 21.5982 135.844 21.5066 136.062 21.4233L136.075 22.4098H134.89ZM135.886 22.4098V14.206H137.802V22.4098H135.886ZM137.5 22.4098L137.538 21.3235L138.811 21.4483C139.198 21.4816 139.513 21.4358 139.757 21.311C140.009 21.1861 140.194 21.0154 140.312 20.799C140.429 20.5742 140.488 20.3453 140.488 20.1122C140.488 19.8625 140.425 19.6169 140.299 19.3755C140.173 19.1341 139.984 18.9343 139.732 18.7761C139.488 18.618 139.189 18.5389 138.836 18.5389H137.538L137.752 18.2142L139.416 18.0144C140.097 17.9562 140.665 18.0228 141.119 18.2142C141.581 18.4057 141.93 18.6721 142.165 19.0134C142.4 19.3547 142.518 19.7293 142.518 20.1372C142.518 20.5201 142.4 20.8864 142.165 21.236C141.93 21.5774 141.556 21.8604 141.043 22.0852C140.539 22.3016 139.87 22.4098 139.038 22.4098H137.5ZM136.416 15.0051L134.991 14.8303L135.003 14.1935H136.416V15.0051Z" fill="white"/>
<path d="M145.317 22.4098V14.1935H147.233V22.4098H145.317ZM144.321 22.4098L144.245 22.0102C144.43 21.8937 144.628 21.7896 144.838 21.6981C145.056 21.5982 145.275 21.5066 145.493 21.4233L145.506 22.4098H144.321ZM145.96 22.4098L146.906 21.3859L150.953 21.0737L151.167 22.4098H145.96ZM151.18 22.4098L149.478 22.1101L150.247 19.4379L151.344 19.5378C151.352 19.8125 151.352 20.1247 151.344 20.4744C151.335 20.824 151.319 21.1695 151.293 21.5108C151.268 21.8521 151.23 22.1517 151.18 22.4098ZM146.086 15.08L144.346 14.8303L144.359 14.1935H146.124L146.086 15.08ZM147.057 15.1799L147.044 14.1935H148.229L148.305 14.5931C148.12 14.7013 147.923 14.8053 147.712 14.9052C147.502 14.9968 147.284 15.0884 147.057 15.1799Z" fill="white"/>
<path d="M152.84 22.4098L152.765 22.0102C152.95 21.8937 153.147 21.7896 153.357 21.6981C153.576 21.5982 153.795 21.5066 154.013 21.4233L154.026 22.4098H152.84ZM159.435 22.4098L157.833 22.1101L158.527 19.85L159.586 19.9249C159.594 20.158 159.59 20.4286 159.573 20.7366C159.565 21.0363 159.548 21.3359 159.523 21.6356C159.498 21.927 159.468 22.185 159.435 22.4098ZM154.341 15.0051L152.916 14.8303L152.929 14.1935H154.341V15.0051ZM158.237 16.566L157.884 14.5306L159.498 14.1935C159.506 14.3516 159.506 14.5681 159.498 14.8428C159.489 15.1092 159.468 15.3964 159.435 15.7044C159.401 16.0041 159.355 16.2913 159.296 16.566H158.237ZM153.837 22.4098V14.1935H155.753V22.4098H153.837ZM158.477 18.901L155.45 18.7761V17.8771L158.477 17.6398V18.901ZM159.309 15.4172L155.337 15.1425L154.391 14.1935H159.498L159.309 15.4172ZM154.429 22.4098L155.375 21.3984L159.321 21.1362L159.435 22.4098H154.429Z" fill="white"/>
<path d="M168.282 22.3151H169.53L172.893 14.2455H171.356L168.929 20.4036L166.49 14.2455H164.918L168.282 22.3151Z" fill="#DBBB6B"/>
<path d="M178.337 22.3952C180.822 22.3952 182.579 20.5066 182.579 18.2517C182.579 15.9739 180.845 14.1082 178.36 14.1082C175.875 14.1082 174.119 15.9968 174.119 18.2517C174.119 20.5295 175.852 22.3952 178.337 22.3952ZM178.36 21.1018C176.754 21.1018 175.61 19.8084 175.61 18.2517C175.61 16.6721 176.731 15.4016 178.337 15.4016C179.944 15.4016 181.088 16.695 181.088 18.2517C181.088 19.8313 179.967 21.1018 178.36 21.1018Z" fill="#DBBB6B"/>
<path d="M186.746 22.3151H187.971L189.959 16.5577L191.947 22.3151H193.172L195.992 14.2455H194.501L192.571 20.1861L190.583 14.2226H189.381L187.393 20.1861L185.463 14.2455H183.926L186.746 22.3151Z" fill="#DBBB6B"/>
<path d="M200.75 22.3723C202.449 22.3723 203.64 21.4795 203.64 19.9801C203.64 18.6294 202.75 18.0228 201.039 17.6107C199.491 17.2444 199.121 16.9697 199.121 16.3516C199.121 15.8022 199.606 15.3787 200.438 15.3787C201.178 15.3787 201.906 15.6648 202.634 16.2028L203.397 15.1383C202.577 14.4859 201.64 14.131 200.462 14.131C198.855 14.131 197.699 15.0811 197.699 16.4546C197.699 17.9541 198.67 18.4577 200.392 18.8583C201.895 19.2132 202.218 19.5222 202.218 20.0945C202.218 20.7241 201.664 21.1247 200.785 21.1247C199.78 21.1247 199.005 20.747 198.231 20.0831L197.376 21.0904C198.346 21.9488 199.514 22.3723 200.75 22.3723Z" fill="#DBBB6B"/>
<defs>
<filter id="filter0_f_946_6630" x="4.29266" y="-0.782593" width="39.895" height="38.7971" filterUnits="userSpaceOnUse" color-interpolation-filters="sRGB">
<feFlood flood-opacity="0" result="BackgroundImageFix"/>
<feBlend mode="normal" in="SourceGraphic" in2="BackgroundImageFix" result="shape"/>
<feGaussianBlur stdDeviation="2" result="effect1_foregroundBlur_946_6630"/>
</filter>
<radialGradient id="paint0_radial_946_6630" cx="0" cy="0" r="1" gradientUnits="userSpaceOnUse" gradientTransform="translate(24.2401 19.4264) rotate(90) scale(14.5881 15.1081)">
<stop stop-color="#C49F44"/>
<stop offset="1" stop-color="#231D1D"/>
</radialGradient>
<linearGradient id="paint1_linear_946_6630" x1="27.6697" y1="13.7724" x2="26.4542" y2="11.3049" gradientUnits="userSpaceOnUse">
<stop stop-color="#DBBB6B"/>
<stop offset="0.52" stop-color="#DBBB6B"/>
<stop offset="1" stop-color="#6B592A"/>
</linearGradient>
<linearGradient id="paint2_linear_946_6630" x1="31.3176" y1="21.2479" x2="27.6165" y2="13.7345" gradientUnits="userSpaceOnUse">
<stop stop-color="#4F411A"/>
<stop offset="0.14" stop-color="#DBBB6B"/>
<stop offset="0.78" stop-color="#DBBB6B"/>
<stop offset="1" stop-color="#6B592A"/>
</linearGradient>
<linearGradient id="paint3_linear_946_6630" x1="31.0305" y1="24.4393" x2="29.4095" y2="21.1493" gradientUnits="userSpaceOnUse">
<stop stop-color="#4F411A"/>
<stop offset="0.14" stop-color="#DBBB6B"/>
<stop offset="0.78" stop-color="#DBBB6B"/>
<stop offset="1" stop-color="#6B592A"/>
</linearGradient>
<linearGradient id="paint4_linear_946_6630" x1="33.3876" y1="26.8756" x2="32.1834" y2="24.4317" gradientUnits="userSpaceOnUse">
<stop stop-color="#4F411A"/>
<stop offset="0.53" stop-color="#DBBB6B"/>
<stop offset="1" stop-color="#DBBB6B"/>
</linearGradient>
<linearGradient id="paint5_linear_946_6630" x1="10.0575" y1="14.8451" x2="7.76129" y2="10.1831" gradientUnits="userSpaceOnUse">
<stop stop-color="#4F411A"/>
<stop offset="0.37" stop-color="#DBBB6B"/>
<stop offset="0.91" stop-color="#DBBB6B"/>
</linearGradient>
<linearGradient id="paint6_linear_946_6630" x1="11.9663" y1="19.1622" x2="9.9244" y2="15.0178" gradientUnits="userSpaceOnUse">
<stop stop-color="#4F411A"/>
<stop offset="0.14" stop-color="#DBBB6B"/>
<stop offset="0.91" stop-color="#DBBB6B"/>
</linearGradient>
<linearGradient id="paint7_linear_946_6630" x1="12.0083" y1="21.853" x2="11.1926" y2="20.1963" gradientUnits="userSpaceOnUse">
<stop stop-color="#4F411A"/>
<stop offset="0.14" stop-color="#DBBB6B"/>
<stop offset="0.91" stop-color="#DBBB6B"/>
</linearGradient>
<linearGradient id="paint8_linear_946_6630" x1="12.9074" y1="23.4015" x2="12.3947" y2="22.3606" gradientUnits="userSpaceOnUse">
<stop stop-color="#4F411A"/>
<stop offset="0.14" stop-color="#DBBB6B"/>
<stop offset="0.91" stop-color="#DBBB6B"/>
</linearGradient>
<linearGradient id="paint9_linear_946_6630" x1="15.0759" y1="27.1078" x2="12.5108" y2="21.9006" gradientUnits="userSpaceOnUse">
<stop stop-color="#4F411A"/>
<stop offset="0.37" stop-color="#DBBB6B"/>
<stop offset="0.91" stop-color="#DBBB6B"/>
</linearGradient>
<clipPath id="clip0_946_6630">
<rect width="49.7561" height="34.4928" fill="white" transform="translate(0 0.753662)"/>
</clipPath>
</defs>
</svg>