<svg width="505" height="133" viewBox="0 0 505 133" fill="none" xmlns="http://www.w3.org/2000/svg">
<g clip-path="url(#clip0_4180_722)">
<path d="M48.7234 104.462C61.962 104.092 75.0141 107.648 86.2377 114.684C74.8668 121.377 61.9149 124.905 48.7234 124.905C35.5319 124.905 22.5801 121.377 11.2092 114.684C22.4327 107.648 35.4849 104.092 48.7234 104.462ZM48.7234 96.5581C21.8787 96.5581 6.387 107.73 0.995249 112.518C0.683405 112.782 0.432777 113.111 0.260892 113.482C0.0890091 113.853 0 114.256 0 114.665C0 115.074 0.0890091 115.478 0.260892 115.848C0.432777 116.219 0.683405 116.548 0.995249 116.812C6.387 121.6 21.8787 133 48.7234 133C75.5681 133 91.0598 121.828 96.4895 117.002C96.8013 116.738 97.0519 116.409 97.2239 116.038C97.3959 115.668 97.4847 115.264 97.4847 114.855C97.4847 114.446 97.3959 114.043 97.2239 113.672C97.0519 113.301 96.8013 112.972 96.4895 112.708C91.0598 107.92 75.5681 96.7481 48.7234 96.7481V96.5581Z" fill="url(#paint0_linear_4180_722)"/>
<path d="M48.7237 0C14.5508 0 8.17188 29.678 8.17188 29.678H89.2756C89.2756 29.678 84.7192 0 48.7237 0Z" fill="url(#paint1_linear_4180_722)"/>
<path d="M48.7237 47.4241C14.5508 47.4241 8.17188 77.0641 8.17188 77.0641H89.2756C89.2756 77.0641 84.7192 47.4241 48.7237 47.4241Z" fill="url(#paint2_linear_4180_722)"/>
<path d="M150.786 41.8H157.317V51.148H157.962C159.155 48.0647 161.235 45.4047 163.938 43.5039C166.642 41.6031 169.847 40.5475 173.15 40.47H176.947V47.12H172.505C162.746 47.12 157.317 55.024 157.317 66.424V95.646H150.672L150.786 41.8Z" fill="#FEF4DE"/>
<path d="M185.984 68.7039C185.846 64.9468 186.465 61.2004 187.806 57.6888C189.147 54.1769 191.182 50.9716 193.789 48.2648C196.396 45.5577 199.522 43.4046 202.979 41.934C206.436 40.463 210.154 39.7053 213.911 39.7053C217.667 39.7053 221.385 40.463 224.843 41.934C228.3 43.4046 231.425 45.5577 234.032 48.2648C236.639 50.9716 238.674 54.1769 240.015 57.6888C241.356 61.2004 241.976 64.9468 241.838 68.7039C241.976 72.4609 241.356 76.2074 240.015 79.7193C238.674 83.2309 236.639 86.4362 234.032 89.1433C231.425 91.8501 228.3 94.0031 224.843 95.4741C221.385 96.9447 217.667 97.7028 213.911 97.7028C210.154 97.7028 206.436 96.9447 202.979 95.4741C199.522 94.0031 196.396 91.8501 193.789 89.1433C191.182 86.4362 189.147 83.2309 187.806 79.7193C186.465 76.2074 185.846 72.4609 185.984 68.7039ZM234.965 68.7039C234.965 55.8979 226.346 46.4359 213.892 46.4359C201.438 46.4359 192.818 56.0119 192.818 68.7039C192.818 81.3959 201.551 90.9339 213.892 90.9339C226.232 90.9339 234.965 81.6619 234.965 68.7039Z" fill="#FEF4DE"/>
<path d="M254.596 80.8259L260.747 79.0779C261.354 86.8679 266.746 90.9339 275.669 90.9339C284.592 90.9339 289.3 86.4499 289.3 80.4459C289.3 63.9159 256.456 76.3799 256.456 54.9859C256.456 45.9419 264.696 40.4319 275.251 40.4319C284.82 40.4319 293.857 45.8279 294.806 55.6319L288.883 57.3039C288.446 54.0366 286.763 51.0654 284.187 49.0115C281.611 46.9576 278.341 45.9803 275.061 46.2839C267.695 46.2839 262.911 49.8179 262.911 55.0999C262.911 69.9579 295.831 57.4939 295.831 80.3699C295.831 90.3259 287.63 96.9759 275.175 96.9759C262.721 96.9759 255.735 89.8699 254.596 80.8259Z" fill="#FEF4DE"/>
<path d="M309.426 68.8939C309.426 51.6419 320.551 40.4319 335.169 40.4319C351.193 40.4319 360.533 51.5279 360.533 67.7539V70.6419H316.298C316.488 83.7519 324.082 90.9339 335.815 90.9339C339.771 91.0616 343.656 89.8634 346.855 87.5299C350.054 85.1959 352.382 81.8606 353.471 78.0519L359.888 79.6099C358.367 84.7855 355.16 89.3029 350.777 92.4432C346.394 95.5832 341.087 97.1655 335.701 96.9379C319.488 96.9379 309.426 85.6139 309.426 68.8939ZM353.775 65.0939C353.871 62.6246 353.456 60.1619 352.554 57.8613C351.653 55.5608 350.285 53.4716 348.537 51.7262C346.79 49.9805 344.699 48.6159 342.399 47.7188C340.098 46.8212 337.637 46.4104 335.169 46.5119C330.218 46.4917 325.46 48.4358 321.937 51.9181C318.415 55.4008 316.415 60.1387 316.374 65.0939H353.775Z" fill="#FEF4DE"/>
<path d="M381.718 80.5221V47.2721H369.568V41.8001H382.212V25.8781H388.363V41.8001H405.488V47.3101H388.363V80.4841C388.363 87.0201 391.059 89.8321 397.59 89.8321H404.766V95.6461H397.59C387.832 95.6081 381.718 91.2001 381.718 80.5221Z" fill="#FEF4DE"/>
<path d="M416.842 80.5221V47.2721H393.377V41.8001H417.412V25.8781H423.563V41.8001H440.687V47.3101H423.563V80.4841C423.563 87.0201 426.259 89.8321 432.79 89.8321H439.852V95.6461H432.676C422.956 95.6081 416.842 91.2001 416.842 80.5221Z" fill="#FEF4DE"/>
<path d="M452.646 68.8939C452.646 51.6419 463.772 40.4319 478.39 40.4319C494.413 40.4319 503.754 51.5279 503.754 67.7539V70.6419H459.519C459.709 83.7519 467.303 90.9339 479.036 90.9339C482.992 91.0616 486.876 89.8634 490.077 87.5299C493.274 85.1959 495.602 81.8606 496.692 78.0519L503.109 79.6099C501.59 84.7855 498.381 89.3029 494 92.4432C489.614 95.5832 484.31 97.1655 478.922 96.9379C462.747 96.9379 452.646 85.6139 452.646 68.8939ZM496.995 65.0939C497.094 62.6246 496.676 60.1619 495.777 57.8613C494.873 55.5608 493.506 53.4716 491.759 51.7262C490.009 49.9805 487.921 48.6159 485.62 47.7188C483.319 46.8212 480.858 46.4104 478.39 46.5119C473.439 46.4917 468.681 48.4358 465.158 51.9181C461.634 55.4008 459.637 60.1387 459.595 65.0939H496.995Z" fill="#FEF4DE"/>
</g>
<defs>
<linearGradient id="paint0_linear_4180_722" x1="-0.029943" y1="114.684" x2="97.4768" y2="114.684" gradientUnits="userSpaceOnUse">
<stop stop-color="#F86E38"/>
<stop offset="0.58" stop-color="#F99D49"/>
<stop offset="1" stop-color="#FABB54"/>
</linearGradient>
<linearGradient id="paint1_linear_4180_722" x1="8.17188" y1="14.82" x2="106.4" y2="14.82" gradientUnits="userSpaceOnUse">
<stop stop-color="#F86E38"/>
<stop offset="0.4" stop-color="#F99847"/>
<stop offset="0.79" stop-color="#FABA53"/>
<stop offset="1" stop-color="#FAC758"/>
</linearGradient>
<linearGradient id="paint2_linear_4180_722" x1="8.17188" y1="62.2441" x2="109.286" y2="62.2441" gradientUnits="userSpaceOnUse">
<stop stop-color="#F86E38"/>
<stop offset="0.4" stop-color="#F99847"/>
<stop offset="0.79" stop-color="#FABA53"/>
<stop offset="1" stop-color="#FAC758"/>
</linearGradient>
<clipPath id="clip0_4180_722">
<rect width="505" height="133" fill="white"/>
</clipPath>
</defs>
</svg>
